<svg width="170" height="16" viewBox="0 0 170 16" fill="none" xmlns="http://www.w3.org/2000/svg">
<path d="M22.7078 13.4079L17.5103 5.62019L10.5406 15.9482H0L10.4175 0.0339397L13.6991 0L4.64645 13.5517H8.70256L17.2936 0.320989L28 16H24.3765L22.7078 13.4079Z" fill="white"/>
<path d="M17.5761 10.2205L21.6628 16H13.4888L17.5761 10.2205Z" fill="white"/>
<path d="M42.523 2.00273H47.0682L53.5896 13.9958H50.0326L48.1548 10.5425H41.4348L39.557 13.9958H36L42.523 2.00273ZM47.0682 8.54412L44.7948 4.36482L42.5215 8.54412H47.0682Z" fill="white"/>
<path d="M69.2045 13.9958L63.8682 9.08907H60.3111V13.9958H56.9511V2.00279H68.621C68.7983 2.00279 69.0484 2.01115 69.3712 2.03066C69.694 2.04877 69.941 2.06968 70.1123 2.09476C70.2835 2.11845 70.5003 2.15887 70.764 2.21322C71.0277 2.26756 71.2308 2.33724 71.3763 2.42225C71.5218 2.50726 71.6794 2.61038 71.8506 2.73162C72.0219 2.85286 72.1538 2.99501 72.2462 3.15805C72.3387 3.3211 72.4144 3.51202 72.4735 3.73081C72.5326 3.9496 72.563 4.19069 72.563 4.45825V6.63918C72.563 6.97782 72.5129 7.28162 72.4144 7.54779C72.3159 7.81396 72.1977 8.03275 72.0583 8.20137C71.9204 8.37139 71.7158 8.51631 71.446 8.63756C71.1762 8.7588 70.9383 8.84659 70.7352 8.90094C70.5306 8.95529 70.2381 8.99849 69.8562 9.02775C69.4742 9.05841 69.1772 9.07653 68.9665 9.0821C68.7559 9.08768 68.4391 9.09046 68.0178 9.09046L73.3541 13.9972H69.2045V13.9958ZM68.0178 7.0907C68.2815 7.0907 68.4785 7.08512 68.6104 7.07258C68.7422 7.06004 68.8741 7.0029 69.0059 6.89978C69.1378 6.79665 69.2045 6.64894 69.2045 6.45523V4.63802C69.2045 4.44432 69.1378 4.2952 69.0059 4.19347C68.8741 4.09035 68.7422 4.03321 68.6104 4.02067C68.4785 4.00813 68.2815 4.00255 68.0178 4.00255H60.3096V7.09209H68.0178V7.0907Z" fill="white"/>
<path d="M76.9126 2.00279H80.2726V8.36302L87.1896 2.00279H91.3393L85.2134 7.63558L92.1304 13.9958H87.9808L83.1385 9.54337L80.2726 12.1786V13.9958H76.9126V2.00279Z" fill="white"/>
<path d="M95.4904 2.00279H110.116V4.00116H98.8504V6.45384H109.127V8.45221H98.8504V11.996H110.116V13.9944H95.4904V2.00279Z" fill="white"/>
<path d="M126.717 13.9958L121.381 9.08907H117.824V13.9958H114.464V2.00279H126.134C126.311 2.00279 126.561 2.01115 126.884 2.03066C127.207 2.04877 127.454 2.06968 127.625 2.09476C127.796 2.11845 128.013 2.15887 128.277 2.21322C128.54 2.26756 128.743 2.33724 128.889 2.42225C129.034 2.50726 129.192 2.61038 129.363 2.73162C129.534 2.85286 129.666 2.99501 129.759 3.15805C129.851 3.3211 129.927 3.51202 129.986 3.73081C130.045 3.94821 130.076 4.19069 130.076 4.45825V6.63918C130.076 6.97782 130.026 7.28162 129.927 7.54779C129.828 7.81396 129.71 8.03275 129.571 8.20137C129.433 8.37139 129.228 8.51631 128.959 8.63756C128.689 8.7588 128.451 8.84659 128.248 8.90094C128.043 8.95529 127.751 8.99849 127.369 9.02775C126.987 9.05841 126.69 9.07653 126.479 9.0821C126.268 9.08768 125.952 9.09046 125.53 9.09046L130.867 13.9972H126.717V13.9958ZM125.53 7.0907C125.794 7.0907 125.991 7.08512 126.123 7.07258C126.255 7.06004 126.387 7.0029 126.519 6.89978C126.65 6.79665 126.717 6.64894 126.717 6.45523V4.63802C126.717 4.44432 126.65 4.2952 126.519 4.19347C126.387 4.09035 126.255 4.03321 126.123 4.02067C125.991 4.00813 125.794 4.00255 125.53 4.00255H117.822V7.09209H125.53V7.0907Z" fill="white"/>
<path d="M134.425 4.45546C134.425 4.18929 134.456 3.94681 134.515 3.72802C134.574 3.51063 134.649 3.31971 134.742 3.15527C134.834 2.99222 134.966 2.85008 135.138 2.72884C135.309 2.6076 135.466 2.50447 135.612 2.41946C135.757 2.33446 135.96 2.26478 136.224 2.21043C136.488 2.15608 136.705 2.11706 136.876 2.09198C137.047 2.06829 137.294 2.04599 137.617 2.02787C137.94 2.00976 138.19 2 138.367 2H146.094C146.271 2 146.521 2.00836 146.844 2.02787C147.167 2.04599 147.414 2.06689 147.585 2.09198C147.756 2.11567 147.973 2.15608 148.237 2.21043C148.5 2.26478 148.703 2.33446 148.849 2.41946C148.994 2.50447 149.152 2.6076 149.323 2.72884C149.494 2.85008 149.626 2.99222 149.719 3.15527C149.811 3.31831 149.887 3.50923 149.946 3.72802C150.005 3.94681 150.035 4.1879 150.035 4.45546V11.5431C150.035 11.8093 150.005 12.0518 149.946 12.2706C149.887 12.488 149.811 12.6789 149.719 12.8433C149.626 13.0064 149.494 13.1499 149.323 13.2712C149.152 13.3924 148.994 13.4955 148.849 13.5805C148.703 13.6655 148.5 13.7352 148.237 13.7896C147.973 13.8439 147.756 13.8829 147.585 13.908C147.414 13.9317 147.167 13.954 146.844 13.9721C146.521 13.9902 146.271 14 146.094 14H138.367C138.19 14 137.94 13.9916 137.617 13.9721C137.294 13.954 137.047 13.9331 136.876 13.908C136.705 13.8843 136.488 13.8439 136.224 13.7896C135.96 13.7352 135.756 13.6655 135.612 13.5805C135.466 13.4955 135.309 13.3924 135.138 13.2712C134.966 13.1499 134.834 13.0078 134.742 12.8433C134.649 12.6803 134.574 12.4894 134.515 12.2706C134.456 12.0532 134.425 11.8107 134.425 11.5431V4.45546ZM137.982 11.8065C138.114 11.9096 138.246 11.9668 138.378 11.9793C138.51 11.9919 138.707 11.9974 138.97 11.9974H145.492C145.756 11.9974 145.953 11.9919 146.084 11.9793C146.216 11.9668 146.348 11.9096 146.48 11.8065C146.612 11.7034 146.679 11.5557 146.679 11.362V4.63802C146.679 4.44432 146.612 4.2952 146.48 4.19347C146.348 4.09035 146.216 4.03321 146.084 4.02067C145.953 4.00813 145.756 4.00256 145.492 4.00256H138.97C138.707 4.00256 138.51 4.00813 138.378 4.02067C138.246 4.03321 138.114 4.09035 137.982 4.19347C137.85 4.2966 137.784 4.44432 137.784 4.63802V11.362C137.785 11.5543 137.85 11.7034 137.982 11.8065Z" fill="white"/>
<path d="M154.387 2.00279H158.142L166.64 10.544V2.00279H170V13.9958H166.244L157.747 5.45465V13.9958H154.387V2.00279Z" fill="white"/>
</svg>
