<svg width="64" height="64" viewBox="0 0 64 64" fill="none" xmlns="http://www.w3.org/2000/svg">
<path fill-rule="evenodd" clip-rule="evenodd" d="M28.8237 59.2179C29.1002 59.4348 28.2755 58.7917 29.4789 59.7213C29.9164 60.0592 30.369 60.3195 30.7678 60.5139C31.5509 60.8956 32.449 60.8956 33.2321 60.5139C33.631 60.3195 34.0836 60.0592 34.521 59.7213C35.7245 58.7917 34.8998 59.4348 35.1763 59.2179C35.7288 58.7843 36.5033 58.1557 37.426 57.3505C39.2657 55.745 41.7237 53.4118 44.1922 50.4972C49.0289 44.7864 54.4 36.2599 54.4 26.2436C54.4 20.1174 52.0292 14.2514 47.8237 9.93347C43.6196 5.61709 37.9268 3.2002 32 3.2002C26.0731 3.2002 20.3804 5.61709 16.1763 9.93347C11.9707 14.2514 9.59998 20.1174 9.59998 26.2436C9.59998 36.2599 14.971 44.7864 19.8078 50.4972C22.2763 53.4118 24.7342 55.745 26.5739 57.3505C27.4966 58.1557 28.2712 58.7843 28.8237 59.2179Z" fill="#E30613"/>
<path d="M40.7078 29.4079L35.5103 21.6202L28.5406 31.9482H18L28.4175 16.0339L31.6991 16L22.6464 29.5517H26.7026L35.2936 16.321L46 32H42.3765L40.7078 29.4079Z" fill="white"/>
<path d="M35.5761 26.2205L39.6628 32H31.4888L35.5761 26.2205Z" fill="white"/>
</svg>
