<svg width="40" height="40" viewBox="0 0 40 40" fill="none" xmlns="http://www.w3.org/2000/svg">
<rect width="40" height="40" fill="#F1F1F1"/>
<path fill-rule="evenodd" clip-rule="evenodd" d="M22.6866 10.2485C23.2724 9.66276 24.2221 9.66276 24.8079 10.2485L29.7473 15.1879C30.3331 15.7737 30.3331 16.7234 29.7473 17.3092L17.3111 29.7455C16.7253 30.3313 15.7755 30.3312 15.1897 29.7455L10.2504 24.8061C9.66459 24.2203 9.66459 23.2706 10.2504 22.6848L22.6866 10.2485ZM28.6866 16.2486L23.7473 11.3092L21.4336 13.6229L23.9053 16.0947C24.1982 16.3876 24.1982 16.8624 23.9053 17.1553C23.6124 17.4482 23.1376 17.4482 22.8447 17.1553L20.3729 14.6836L18.0586 16.9979L20.5303 19.4697C20.8232 19.7626 20.8232 20.2374 20.5303 20.5303C20.2374 20.8232 19.7626 20.8232 19.4697 20.5303L16.9979 18.0586L14.6836 20.3729L17.1553 22.8447C17.4482 23.1376 17.4482 23.6124 17.1553 23.9053C16.8624 24.1982 16.3876 24.1982 16.0947 23.9053L13.6229 21.4336L11.311 23.7454L16.2504 28.6848L28.6866 16.2486Z" fill="#1D1E1C"/>
</svg>
