<svg xmlns="http://www.w3.org/2000/svg" xmlns:xlink="http://www.w3.org/1999/xlink">
    <symbol viewBox="0 0 24 24" id="arrow_right" xmlns="http://www.w3.org/2000/svg">
        <path fill-rule="evenodd" clip-rule="evenodd"
            d="M12.9697 4.71967C13.2626 4.42678 13.7374 4.42678 14.0303 4.71967L20.7803 11.4697C21.0732 11.7626 21.0732 12.2374 20.7803 12.5303L14.0303 19.2803C13.7374 19.5732 13.2626 19.5732 12.9697 19.2803C12.6768 18.9874 12.6768 18.5126 12.9697 18.2197L18.4393 12.75H3.75C3.33579 12.75 3 12.4142 3 12C3 11.5858 3.33579 11.25 3.75 11.25H18.4393L12.9697 5.78033C12.6768 5.48744 12.6768 5.01256 12.9697 4.71967Z" />
    </symbol>
    <symbol viewBox="0 0 24 24" id="arrow_left" xmlns="http://www.w3.org/2000/svg">
        <path fill-rule="evenodd" clip-rule="evenodd"
            d="M11.0303 4.71967C11.3232 5.01256 11.3232 5.48744 11.0303 5.78033L5.56066 11.25H20.25C20.6642 11.25 21 11.5858 21 12C21 12.4142 20.6642 12.75 20.25 12.75H5.56066L11.0303 18.2197C11.3232 18.5126 11.3232 18.9874 11.0303 19.2803C10.7374 19.5732 10.2626 19.5732 9.96967 19.2803L3.21967 12.5303C2.92678 12.2374 2.92678 11.7626 3.21967 11.4697L9.96967 4.71967C10.2626 4.42678 10.7374 4.42678 11.0303 4.71967Z" />
    </symbol>
    <symbol viewBox="0 0 24 24" id="telegram" xmlns="http://www.w3.org/2000/svg">
        <path fill-rule="evenodd" clip-rule="evenodd"
            d="M21.8394 6.05639C22.0315 4.8917 20.8652 3.97177 19.7773 4.42984L2.67703 11.63C1.48461 12.132 1.42351 13.8558 2.67788 14.3758C3.60596 14.7605 5.02633 15.3246 6.45085 15.7943C7.61932 16.1795 8.8931 16.5371 9.91353 16.6383C10.1929 16.9725 10.5445 17.2935 10.9017 17.5872C11.4487 18.0371 12.1074 18.5012 12.7873 18.9455C14.1489 19.8352 15.6597 20.6865 16.678 21.2396C17.8949 21.9006 19.3517 21.1395 19.5705 19.8131L21.8394 6.05639ZM4.59485 12.9925L19.7186 6.62459L17.6009 19.4649C16.6024 18.9219 15.163 18.1087 13.8813 17.2713C13.2329 16.8475 12.6407 16.4279 12.172 16.0425C12.0051 15.9052 11.8638 15.7802 11.7461 15.6683L15.7072 11.7071C16.0977 11.3166 16.0977 10.6834 15.7072 10.2929C15.3167 9.90237 14.6835 9.90237 14.293 10.2929L9.95476 14.6311C9.22132 14.5373 8.19888 14.2647 7.07709 13.8949C6.21377 13.6102 5.34574 13.2869 4.59485 12.9925Z" />
    </symbol>
    <symbol viewBox="0 0 24 24" id="language" xmlns="http://www.w3.org/2000/svg">
        <path fill-rule="evenodd" clip-rule="evenodd"
            d="M4.06055 9.75C3.85825 10.4652 3.75 11.22 3.75 12C3.75 12.78 3.85825 13.5348 4.06055 14.25H7.62034C7.54146 13.5271 7.5 12.7732 7.5 12C7.5 11.2268 7.54146 10.4729 7.62034 9.75H4.06055ZM4.64956 8.25H7.84569C8.04263 7.23416 8.31835 6.30836 8.65891 5.51313C8.86838 5.02404 9.1073 4.57281 9.37559 4.17619C7.31922 4.86569 5.62431 6.3432 4.64956 8.25ZM14.6244 4.17619C14.8927 4.57281 15.1316 5.02404 15.3411 5.51313C15.6817 6.30836 15.9574 7.23416 16.1543 8.25H19.3504C18.3757 6.3432 16.6808 4.86569 14.6244 4.17619ZM19.9395 9.75H16.3797C16.4585 10.4729 16.5 11.2268 16.5 12C16.5 12.7732 16.4585 13.5271 16.3797 14.25H19.9395C20.1417 13.5348 20.25 12.78 20.25 12C20.25 11.22 20.1417 10.4652 19.9395 9.75ZM19.3504 15.75H16.1543C15.9574 16.7658 15.6817 17.6916 15.3411 18.4869C15.1316 18.976 14.8927 19.4272 14.6244 19.8238C16.6808 19.1343 18.3757 17.6568 19.3504 15.75ZM9.37559 19.8238C9.1073 19.4272 8.86838 18.976 8.65891 18.4869C8.31835 17.6916 8.04263 16.7658 7.84569 15.75H4.64956C5.62431 17.6568 7.31923 19.1343 9.37559 19.8238ZM9.37646 15.75C9.54878 16.5557 9.77378 17.2799 10.0378 17.8963C10.3533 18.6331 10.7097 19.1813 11.0673 19.5345C11.4217 19.8845 11.736 20.0062 12 20.0062C12.264 20.0062 12.5783 19.8845 12.9327 19.5345C13.2903 19.1813 13.6467 18.6331 13.9622 17.8963C14.2262 17.2799 14.4512 16.5557 14.6235 15.75H9.37646ZM14.87 14.25C14.9544 13.5377 15 12.7832 15 12C15 11.2168 14.9544 10.4623 14.87 9.75H9.12997C9.04564 10.4623 9 11.2168 9 12C9 12.7832 9.04564 13.5377 9.12997 14.25H14.87ZM9.37646 8.25H14.6235C14.4512 7.44429 14.2262 6.7201 13.9622 6.10366C13.6467 5.36692 13.2903 4.81865 12.9327 4.46548C12.5783 4.11548 12.264 3.99375 12 3.99375C11.736 3.99375 11.4217 4.11548 11.0673 4.46548C10.7097 4.81865 10.3533 5.36692 10.0378 6.10366C9.77378 6.7201 9.54878 7.44429 9.37646 8.25ZM2.25 12C2.25 6.61522 6.61522 2.25 12 2.25C17.3848 2.25 21.75 6.61522 21.75 12C21.75 17.3848 17.3848 21.75 12 21.75C6.61522 21.75 2.25 17.3848 2.25 12Z" />
    </symbol>
    <symbol viewBox="0 0 24 24" id="phone" xmlns="http://www.w3.org/2000/svg">
        <path fill-rule="evenodd" clip-rule="evenodd"
            d="M4.53818 3.12091C5.73532 1.92378 7.67419 1.97934 8.86821 3.17336L10.8613 5.16645C12.0553 6.36047 12.1109 8.29935 10.9137 9.49648L10.6374 9.77286C10.4291 9.98109 10.4067 10.3187 10.6046 10.5586C11.0218 11.0641 11.4692 11.5648 11.9522 12.0479C12.4353 12.5309 12.936 12.9784 13.4415 13.3955C13.6814 13.5934 14.019 13.571 14.2272 13.3627L14.5036 13.0864C15.7008 11.8892 17.6396 11.9448 18.8337 13.1388L20.8267 15.1319C22.0208 16.3259 22.0763 18.2648 20.8792 19.4619L19.5924 20.7487C18.2847 22.0564 16.1453 21.9506 14.0638 21.1869C11.9173 20.3993 9.52188 18.816 7.35299 16.6471C5.18409 14.4782 3.60079 12.0828 2.81323 9.93628C2.04952 7.85479 1.9437 5.7154 3.25142 4.40768L4.53818 3.12091ZM7.80755 4.23402C7.16698 3.59345 6.17837 3.60205 5.59884 4.18157L4.31208 5.46834V5.46834C3.66548 6.11494 3.50067 7.45517 4.22144 9.4196C4.91835 11.319 6.36299 13.5358 8.41365 15.5865C10.4643 17.6371 12.6811 19.0818 14.5805 19.7787C16.5449 20.4994 17.8852 20.3346 18.5318 19.688L19.8185 18.4013C20.3981 17.8217 20.4067 16.8331 19.7661 16.1926L17.773 14.1995C17.1324 13.5589 16.1438 13.5675 15.5643 14.147L15.2879 14.4234C14.5369 15.1744 13.3271 15.2458 12.4868 14.5524C11.9505 14.1098 11.4135 13.6304 10.8916 13.1085C10.3697 12.5866 9.89027 12.0496 9.44768 11.5133C8.75428 10.673 8.82569 9.46321 9.5767 8.7122L9.85309 8.43582C10.4326 7.8563 10.4412 6.86768 9.80064 6.22711L7.80755 4.23402Z" />
    </symbol>
    <symbol viewBox="0 0 28 16" id="logo" xmlns="http://www.w3.org/2000/svg">
        <path
            d="M22.7078 13.4079L17.5103 5.62019L10.5406 15.9482H0L10.4175 0.0339397L13.6991 0L4.64645 13.5517H8.70256L17.2936 0.320989L28 16H24.3765L22.7078 13.4079Z" />
        <path d="M17.5761 10.2205L21.6628 16H13.4888L17.5761 10.2205Z" />
    </symbol>
</svg>