<svg xmlns="http://www.w3.org/2000/svg" xmlns:xlink="http://www.w3.org/1999/xlink" width="0" height="0" style="position:absolute">
	
		<symbol id="arrow-down" viewBox="0 0 9 9">
			<defs><style>.cls-1{fill:#111;fill-rule:evenodd}</style></defs><path id="_" data-name="→" class="cls-1" d="M701.941 4261.99h-.877v7.28l-3.3-3.55-.75.57 4.482 4.7h.016l4.483-4.7-.75-.57-3.3 3.55v-7.28z" transform="translate(-697 -4262)"></path>
		</symbol>
	
		<symbol id="arrow-down-big" viewBox="0 0 19 32">
			<defs><style>.cls-1{fill:#111;fill-rule:evenodd}</style></defs><path id="arrow-down" class="cls-1" d="M276.033 886.366v-13.389a.982.982 0 0 1 .977-.98h6.983a.982.982 0 0 1 .977.98v13.389a.981.981 0 0 0 .977.98h3.467a.515.515 0 0 1 .488.834l-8.937 15.449a.508.508 0 0 1-.976 0L271.1 888.18c-.245-.49-.049-.834.488-.834h3.467a.981.981 0 0 0 .978-.98z" transform="translate(-271 -872)"></path>
		</symbol>
	
		<symbol id="arrow-down-black" viewBox="0 0 10 6">
			<defs><style>.cls-1{fill:#111;fill-rule:evenodd}</style></defs><path id="arrow" class="cls-1" d="M124.9 272l1.1 1.087-5 4.913-5-4.917 1.1-1.083 3.9 3.848z" transform="translate(-116 -272)"></path>
		</symbol>
	
		<symbol id="arrow-left" viewBox="0 0 36 36">
			<defs><style>.cls-1{fill:#111;fill-rule:evenodd}</style></defs><path id="arrow-left" class="cls-1" d="M86.253 2760a6.255 6.255 0 0 0-6.253 6.25v23.5a6.255 6.255 0 0 0 6.253 6.25h23.494a6.255 6.255 0 0 0 6.253-6.25v-23.5a6.255 6.255 0 0 0-6.253-6.25H86.253zm23.494 33.95H86.253a4.217 4.217 0 0 1-4.206-4.2v-23.5a4.217 4.217 0 0 1 4.206-4.2h23.494a4.217 4.217 0 0 1 4.207 4.2v23.5a4.217 4.217 0 0 1-4.207 4.2zm-3.41-14.93H92.164l3.638 3.64a1.018 1.018 0 1 1-1.44 1.44l-5.419-5.38a1.046 1.046 0 0 1-.3-.72 1.028 1.028 0 0 1 .3-.72l5.381-5.38a1.014 1.014 0 0 1 1.44 0 .985.985 0 0 1 0 1.44l-3.638 3.64h14.211a1.02 1.02 0 1 1 0 2.04z" transform="translate(-80 -2760)"></path>
		</symbol>
	
		<symbol id="arrow-left-active" viewBox="0 0 36 36">
			<defs><style>.cls-1{fill:#de3535;fill-rule:evenodd}</style></defs><path id="arrow-left" class="cls-1" d="M86.253 2760a6.255 6.255 0 0 0-6.253 6.25v23.5a6.255 6.255 0 0 0 6.253 6.25h23.494a6.255 6.255 0 0 0 6.253-6.25v-23.5a6.255 6.255 0 0 0-6.253-6.25H86.253zm23.494 33.95H86.253a4.217 4.217 0 0 1-4.206-4.2v-23.5a4.217 4.217 0 0 1 4.206-4.2h23.494a4.217 4.217 0 0 1 4.207 4.2v23.5a4.217 4.217 0 0 1-4.207 4.2zm-3.41-14.93H92.164l3.638 3.64a1.018 1.018 0 1 1-1.44 1.44l-5.419-5.38a1.046 1.046 0 0 1-.3-.72 1.028 1.028 0 0 1 .3-.72l5.381-5.38a1.014 1.014 0 0 1 1.44 0 .985.985 0 0 1 0 1.44l-3.638 3.64h14.211a1.02 1.02 0 1 1 0 2.04z" transform="translate(-80 -2760)"></path>
		</symbol>
	
		<symbol id="arrow-left-small" viewBox="0 0 9 9">
			<defs><style>.cls-1{fill:#111;fill-rule:evenodd}</style></defs><path id="_" data-name="→" class="cls-1" d="M40.01 194.058v.878h-7.286l3.551 3.3-.566.749-4.7-4.482v-.016l4.7-4.483.566.75-3.551 3.3h7.286z" transform="translate(-31 -190)"></path>
		</symbol>
	
		<symbol id="arrow-next" viewBox="0 0 36 36">
			<defs><style>.cls-1{fill:#fff;fill-rule:evenodd}</style></defs><path id="arrow-right" class="cls-1" d="M875.747 936a6.259 6.259 0 0 1 6.253 6.252v23.5a6.258 6.258 0 0 1-6.253 6.248h-23.494a6.258 6.258 0 0 1-6.253-6.253v-23.5a6.259 6.259 0 0 1 6.253-6.247h23.494zm-23.494 33.954h23.494a4.222 4.222 0 0 0 4.207-4.206v-23.5a4.222 4.222 0 0 0-4.207-4.206h-23.494a4.222 4.222 0 0 0-4.207 4.206v23.5a4.222 4.222 0 0 0 4.207 4.205zm3.41-14.93h14.173l-3.636 3.636a1.018 1.018 0 0 0 1.44 1.44l5.419-5.381a1.007 1.007 0 0 0 0-1.44l-5.381-5.381a1.007 1.007 0 0 0-1.44 0 .985.985 0 0 0 0 1.44l3.638 3.638h-14.213a1.024 1.024 0 0 0 0 2.047z" transform="translate(-846 -936)"></path>
		</symbol>
	
		<symbol id="arrow-prev" viewBox="0 0 36 36">
			<defs><style>.cls-1{fill:#fff;fill-rule:evenodd}</style></defs><path id="arrow-left-inacrive" class="cls-1" d="M126.253 936a6.259 6.259 0 0 0-6.253 6.252v23.5a6.258 6.258 0 0 0 6.253 6.248h23.494a6.258 6.258 0 0 0 6.253-6.253v-23.5a6.259 6.259 0 0 0-6.253-6.247h-23.494zm23.494 33.954h-23.494a4.222 4.222 0 0 1-4.207-4.206v-23.5a4.222 4.222 0 0 1 4.207-4.206h23.494a4.222 4.222 0 0 1 4.207 4.206v23.5a4.222 4.222 0 0 1-4.207 4.205zm-3.41-14.93h-14.173l3.638 3.637a1.018 1.018 0 0 1-1.44 1.44l-5.419-5.381a1.007 1.007 0 0 1 0-1.44l5.381-5.381a1.007 1.007 0 0 1 1.44 0 .985.985 0 0 1 0 1.44l-3.638 3.638h14.211a1.024 1.024 0 0 1 0 2.046z" transform="translate(-120 -936)"></path>
		</symbol>
	
		<symbol id="arrow-right" viewBox="0 0 36 36">
			<defs><style>.cls-1{fill:#111;fill-rule:evenodd}</style></defs><path id="arrow-right" class="cls-1" d="M1213.75 2760a6.252 6.252 0 0 1 6.25 6.25v23.5a6.252 6.252 0 0 1-6.25 6.25h-23.5a6.252 6.252 0 0 1-6.25-6.25v-23.5a6.252 6.252 0 0 1 6.25-6.25h23.5zm-23.5 33.95h23.5a4.212 4.212 0 0 0 4.2-4.2v-23.5a4.212 4.212 0 0 0-4.2-4.2h-23.5a4.212 4.212 0 0 0-4.2 4.2v23.5a4.212 4.212 0 0 0 4.2 4.2zm3.41-14.93h14.18l-3.64 3.64a1.018 1.018 0 1 0 1.44 1.44l5.42-5.38a1.04 1.04 0 0 0 .3-.72 1.022 1.022 0 0 0-.3-.72l-5.38-5.38a1.04 1.04 0 0 0-.72-.3 1.022 1.022 0 0 0-.72.3.98.98 0 0 0 0 1.44l3.63 3.64h-14.21a1.02 1.02 0 0 0 0 2.04z" transform="translate(-1184 -2760)"></path>
		</symbol>
	
		<symbol id="arrow-right-active" viewBox="0 0 36 36">
			<defs><style>.cls-1{fill:#de3535;fill-rule:evenodd}</style></defs><path id="arrow-right" class="cls-1" d="M1213.75 2760a6.252 6.252 0 0 1 6.25 6.25v23.5a6.252 6.252 0 0 1-6.25 6.25h-23.5a6.252 6.252 0 0 1-6.25-6.25v-23.5a6.252 6.252 0 0 1 6.25-6.25h23.5zm-23.5 33.95h23.5a4.212 4.212 0 0 0 4.2-4.2v-23.5a4.212 4.212 0 0 0-4.2-4.2h-23.5a4.212 4.212 0 0 0-4.2 4.2v23.5a4.212 4.212 0 0 0 4.2 4.2zm3.41-14.93h14.18l-3.64 3.64a1.018 1.018 0 1 0 1.44 1.44l5.42-5.38a1.04 1.04 0 0 0 .3-.72 1.022 1.022 0 0 0-.3-.72l-5.38-5.38a1.04 1.04 0 0 0-.72-.3 1.022 1.022 0 0 0-.72.3.98.98 0 0 0 0 1.44l3.63 3.64h-14.21a1.02 1.02 0 0 0 0 2.04z" transform="translate(-1184 -2760)"></path>
		</symbol>
	
		<symbol id="arrow-right-small" viewBox="0 0 9 9">
			<defs><style>.cls-1{fill:#111;fill-rule:evenodd}</style></defs><path id="_" data-name="→" class="cls-1" d="M282.99 451.058v.878h7.286l-3.551 3.3.566.75 4.7-4.483v-.016l-4.7-4.482-.566.749 3.551 3.3h-7.286z" transform="translate(-283 -447)"></path>
		</symbol>
	
		<symbol id="arrow-top" viewBox="0 0 9 9">
			<defs><style>.cls-1{fill:#111;fill-rule:evenodd}</style></defs><path id="_" data-name="→" class="cls-1" d="M480.058 687.01h.878v-7.286l3.3 3.551.75-.566-4.483-4.7h-.016l-4.482 4.7.749.566 3.3-3.551v7.286z" transform="translate(-476 -678)"></path>
		</symbol>
	
		<symbol id="arrow-top-red" viewBox="0 0 10 6">
			<defs><style>.cls-1{fill:#de3535;fill-rule:evenodd}</style></defs><path id="arrow" class="cls-1" d="M190.9 385l1.1-1.087-5-4.913-5 4.918 1.1 1.082 3.9-3.848z" transform="translate(-182 -379)"></path>
		</symbol>
	
		<symbol id="arrow-up" viewBox="0 0 8.906 13">
			<defs><style>.cls-1{fill:#fff;fill-rule:evenodd}</style></defs><path id="arrow-up" class="cls-1" d="M297.21 5142.29v-9.84l2.526 2.52a.707.707 0 0 0 1-1l-3.736-3.76a.7.7 0 0 0-1 0l-3.736 3.74a.7.7 0 0 0-.211.5.722.722 0 0 0 .211.5.683.683 0 0 0 1 0l2.526-2.53v9.87a.711.711 0 0 0 1.42 0z" transform="translate(-292.063 -5130)"></path>
		</symbol>
	
		<symbol id="calendar-next" viewBox="0 0 5 9">
			<defs><style>.cls-1{fill:#252525;fill-rule:evenodd}</style></defs><path id="Стрелка_вправо" data-name="Стрелка вправо" class="cls-1" d="M1204.59 174.032L1201.1 170l-1.1.936 3.08 3.564-3.08 3.564 1.1.936 3.49-4.032.41-.468z" transform="translate(-1200 -170)"></path>
		</symbol>
	
		<symbol id="calendar-next-hover" viewBox="0 0 5 9">
			<defs><style>.cls-1{fill:#cecece;fill-rule:evenodd}</style></defs><path id="Стрелка_вправо" data-name="Стрелка вправо" class="cls-1" d="M1204.59 174.032L1201.1 170l-1.1.936 3.08 3.564-3.08 3.564 1.1.936 3.49-4.032.41-.468z" transform="translate(-1200 -170)"></path>
		</symbol>
	
		<symbol id="calendar-prev" viewBox="0 0 5 9">
			<defs><style>.cls-1{fill:#252525;fill-rule:evenodd}</style></defs><path id="Стрелка_влево" data-name="Стрелка влево" class="cls-1" d="M813.406 174.968L816.9 179l1.1-.936-3.086-3.564 3.086-3.564-1.1-.936-3.491 4.032-.4.468z" transform="translate(-813 -170)"></path>
		</symbol>
	
		<symbol id="calendar-prev-hover" viewBox="0 0 5 9">
			<defs><style>.cls-1{fill:#cecece;fill-rule:evenodd}</style></defs><path id="Стрелка_влево" data-name="Стрелка влево" class="cls-1" d="M813.406 174.968L816.9 179l1.1-.936-3.086-3.564 3.086-3.564-1.1-.936-3.491 4.032-.4.468z" transform="translate(-813 -170)"></path>
		</symbol>
	
		<symbol id="card-four." viewBox="0 0 132 119.97">
			<defs><style>.cls-1{fill:#f0f0f0;fill-rule:evenodd}</style></defs><path fill="#f0f0f0" id="card-four" data-name="4." class="cls-1" d="M155.148 2800.99h-27.53v.24l-47.626 76.73 1.634 16.85h45.992v25.27h27.53v-25.27h12.091v-21.27h-12.091v-72.55zm-29.248 38.69l1.715-2.78v36.64h-21.4zm60 57.58a13.57 13.57 0 0 0 0 19.8 17.142 17.142 0 0 0 21.771.04 13.576 13.576 0 0 0 0-19.88 17.142 17.142 0 0 0-21.766.04z" transform="translate(-80 -2801)"></path>
		</symbol>
	
		<symbol id="card-one." viewBox="0 0 125.813 122.312">
			<defs><style>.cls-1{fill:#f0f0f0}</style></defs><path fill="#f0f0f0" id="card-one" data-name="1." class="cls-1" d="M145.928 646.473h-2.585L90.071 664.9v21.34l27.678-8.087v89.7h28.179v-121.38zm43.31 98.125a13.813 13.813 0 0 0 0 20.175 17.49 17.49 0 0 0 22.218.042 13.82 13.82 0 0 0 0-20.258 17.489 17.489 0 0 0-22.218.043z" transform="translate(-90.063 -646.469)"></path>
		</symbol>
	
		<symbol id="card-three." viewBox="0 0 135.719 124.81">
			<defs><style>.cls-1{fill:#f0f0f0}</style></defs><path fill="#f0f0f0" id="card-three" data-name="3." class="cls-1" d="M109.329 1088.34H123q8.086 0 12.672 3.83t4.586 13.01a13.78 13.78 0 0 1-4.419 10.54q-4.419 4.125-11.838 4.13a15.866 15.866 0 0 1-11.088-4.09 12.635 12.635 0 0 1-4.5-9.67H80.15a32.714 32.714 0 0 0 5.252 18.3q5.252 8.055 15.465 12.59a53.816 53.816 0 0 0 22.133 4.55q20.342 0 32.848-9.76t12.505-26.01q0-10.5-5.5-17.63a32.629 32.629 0 0 0-15.173-10.63 34.191 34.191 0 0 0 13.964-11.3 25.638 25.638 0 0 0 4.794-14.8q0-16.17-11.589-25.42T123 1016.72a50.7 50.7 0 0 0-20.8 4.21 35.2 35.2 0 0 0-14.8 11.72 28.754 28.754 0 0 0-5.336 17.09h28.1a9.92 9.92 0 0 1 4.126-8.09 15.217 15.217 0 0 1 9.71-3.25q6.834 0 10.588 3.79a13.351 13.351 0 0 1 3.751 9.8q0 15.42-15.756 15.42h-13.254v20.93zm79.909 28.26a13.807 13.807 0 0 0 0 20.17 17.477 17.477 0 0 0 22.218.05 13.823 13.823 0 0 0 0-20.26 17.494 17.494 0 0 0-22.218.04z" transform="translate(-80.156 -1016.72)"></path>
		</symbol>
	
		<symbol id="card-two." viewBox="0 0 134.719 124.062">
			<defs><style>.cls-1{fill:#f0f0f0}</style></defs><path fill="#f0f0f0" id="card-two" data-name="2." class="cls-1" d="M168.354 932.182h-47.77l15.673-18.091q12.505-12.505 18.133-19.967a61.222 61.222 0 0 0 8.3-14.256 37.9 37.9 0 0 0 2.668-13.964q0-17.007-10.63-26.094t-30.3-9.088a46.073 46.073 0 0 0-22.176 5.336 39.172 39.172 0 0 0-15.507 14.8 39.864 39.864 0 0 0-5.595 20.632h28.179q0-8.17 4-13.631a12.355 12.355 0 0 1 10.421-5.461q6.5 0 9.921 4.085t3.418 11.922q0 9.672-14.423 26.1l-39.015 41.012v18.341h84.7v-21.676zm20.884-1.584a13.813 13.813 0 0 0 0 20.175 17.49 17.49 0 0 0 22.218.042 13.82 13.82 0 0 0 0-20.258 17.492 17.492 0 0 0-22.218.043z" transform="translate(-81.156 -830.719)"></path>
		</symbol>
	
		<symbol id="checked" viewBox="0 0 12 10">
			<defs><style>.cls-1{fill:#fff;fill-rule:evenodd}</style></defs><path id="Галка" class="cls-1" d="M117.824 554l-5.551 5.6-2.1-2.117-2.177 2.2 2.1 2.117 2.176 2.2 2.176-2.2 5.552-5.6z" transform="translate(-108 -554)"></path>
		</symbol>
	
		<symbol id="checked-black" viewBox="0 0 12 10">
			<defs><style>.cls-1{fill:#111;fill-rule:evenodd}</style></defs><path id="Галка" class="cls-1" d="M117.824 554l-5.551 5.6-2.1-2.117-2.177 2.2 2.1 2.117 2.176 2.2 2.176-2.2 5.552-5.6z" transform="translate(-108 -554)"></path>
		</symbol>
	
		<symbol id="checked-red" viewBox="0 0 17 14">
			<defs><style>.cls-1{fill:#de3535;fill-rule:evenodd}</style></defs><path id="done" class="cls-1" d="M676 745.069L672.974 742l-7.75 7.841-3.2-3.245-3.024 3.069 6.224 6.335z" transform="translate(-659 -742)"></path>
		</symbol>
	
		<symbol id="close" viewBox="0 0 16.969 17">
			<defs><style>.cls-1{fill:#de3535;fill-rule:evenodd}</style></defs><path id="Закрыть" class="cls-1" d="M30.136 146.313l-6.658 6.679-6.658-6.679a1.067 1.067 0 0 0-1.506 1.511l6.658 6.679-6.658 6.678a1.057 1.057 0 0 0 0 1.511 1.077 1.077 0 0 0 1.506 0l6.658-6.679 6.658 6.679a1.077 1.077 0 0 0 1.506 0 1.057 1.057 0 0 0 0-1.511l-6.659-6.681 6.658-6.679a1.1 1.1 0 0 0 0-1.511 1.049 1.049 0 0 0-1.505.003z" transform="translate(-15 -146)"></path>
		</symbol>
	
		<symbol id="facebook" viewBox="0 0 7 13.32">
			<defs><style>.cls-1{fill:#fff;fill-rule:evenodd}</style></defs><path id="Facebook" class="cls-1" d="M84.531 4651.59h2.063l.313-2.38h-2.376v-1.53a1.238 1.238 0 0 1 .25-.84 1.218 1.218 0 0 1 .938-.28l1.281-.04v-2.09a15.364 15.364 0 0 0-1.844-.09 3.113 3.113 0 0 0-2.25.81 3.052 3.052 0 0 0-.844 2.31v1.75H80v2.38h2.063v6.06h2.469v-6.06z" transform="translate(-80 -4644.34)"></path>
		</symbol>
	
		<symbol id="head-close" viewBox="0 0 14 14">
			<defs><style>.cls-1{fill:#252525;fill-rule:evenodd}</style></defs><path id="ИКОНКА._Закрыть" data-name="ИКОНКА. Закрыть" class="cls-1" d="M1271.22 30l5.78-5.782 5.78 5.782 1.22-1.215-5.79-5.785 5.79-5.782-1.22-1.218-5.78 5.785-5.78-5.785-1.22 1.217 5.79 5.783-5.79 5.782z" transform="translate(-1270 -16)"></path>
		</symbol>
	
		<symbol id="icon-acsses" viewBox="0 0 15.031 15">
			<defs><style>.cls-1{fill-rule:evenodd}</style></defs><path id="icno-acsses" class="cls-1" d="M28.8 343.143c-.375-.075-.75-.149-1.05-.224a5.261 5.261 0 0 0-10.5 0c-.375.075-.75.149-1.05.224a.635.635 0 0 0-.6.521 13.64 13.64 0 0 0 0 8.125.858.858 0 0 0 .6.522 30.285 30.285 0 0 0 12.675 0 .84.84 0 0 0 .6-.522 14.963 14.963 0 0 0-.075-8.125.724.724 0 0 0-.6-.521zm-2.625-.447a30.223 30.223 0 0 0-7.35 0 3.709 3.709 0 0 1 7.35.004zm2.025 3.5H24v2.086a.273.273 0 0 1-.075.224l-1.2 1.342a.282.282 0 0 1-.45 0l-1.2-1.342a.273.273 0 0 1-.075-.221V346.2h-4.2a.322.322 0 0 1-.3-.3v-.894a.322.322 0 0 1 .3-.3h11.4a.322.322 0 0 1 .3.3v.894a.322.322 0 0 1-.3.3zm-5.7.738a.75.75 0 1 1-.75.75.75.75 0 0 1 .75-.747z" transform="translate(-14.969 -338)"></path>
		</symbol>
	
		<symbol id="icon-add" viewBox="0 0 16 16">
			<defs><style>.cls-1{fill:#fff;fill-rule:evenodd}</style></defs><path id="icon-add" class="cls-1" d="M392 1210a8 8 0 1 0 8-8 8 8 0 0 0-8 8zm8.808.81v3.31h-1.616v-3.31h-3.307v-1.62h3.307v-3.31h1.616v3.31h3.307v1.62h-3.307z" transform="translate(-392 -1202)"></path>
		</symbol>
	
		<symbol id="icon-basket" viewBox="0 0 22 20">
			<defs><style>.cls-1{fill:#111;fill-rule:evenodd}</style></defs><path id="icon-basket" class="cls-1" d="M1123.04 271.781a2.171 2.171 0 1 0 2.17-2.222 2.194 2.194 0 0 0-2.17 2.222zm1 0a1.17 1.17 0 1 1 1.17 1.2 1.2 1.2 0 0 1-1.17-1.2zm5.68 0a2.166 2.166 0 1 0 2.16-2.222 2.186 2.186 0 0 0-2.16 2.222zm1 0a1.165 1.165 0 1 1 2.33 0 1.175 1.175 0 0 1-1.17 1.2 1.193 1.193 0 0 1-1.16-1.2zm4.73-14.53h-14.64a.336.336 0 0 1-.34-.273l-.36-1.744a1.518 1.518 0 0 0-1.47-1.231h-3.14a.513.513 0 0 0 0 1.026h3.14a.54.54 0 0 1 .5.41l.53 2.6 1.2 5.779.4 1.914a2.527 2.527 0 0 0 2.47 2.051h11.01a.517.517 0 0 0 .5-.513.523.523 0 0 0-.53-.512h-11.01a1.518 1.518 0 0 1-1.47-1.231l-.26-1.265a.336.336 0 0 1 .33-.411h13.14a.721.721 0 0 0 .67-.546l.87-4.171a1.6 1.6 0 0 0-.57-1.539 1.464 1.464 0 0 0-.97-.344zm-.23 5.3a.325.325 0 0 1-.33.273h-12.95a.318.318 0 0 1-.33-.273l-.17-.856-.63-2.973a.336.336 0 0 1 .33-.411h14.35a.482.482 0 0 1 .4.205.592.592 0 0 1 .1.411z" transform="translate(-1115 -254)"></path>
		</symbol>
	
		<symbol id="icon-calculator" viewBox="0 0 17 17">
			<defs><style>.cls-1{fill:#fff;fill-rule:evenodd}</style></defs><path id="icon-calculator" class="cls-1" d="M871.178 793a2.185 2.185 0 0 0-2.178 2.179v12.649a2.178 2.178 0 0 0 2.178 2.172h12.643a2.178 2.178 0 0 0 2.179-2.172v-12.649a2.185 2.185 0 0 0-2.179-2.179h-12.643zm0 .792h5.922v7.308h-7.313v-5.925a1.377 1.377 0 0 1 1.387-1.387zm6.717 0h5.926a1.377 1.377 0 0 1 1.387 1.387v5.921H877.9v-7.312zm4.98 1.87l-1.331 1.331-1.323-1.331a.435.435 0 0 0-.554-.014.454.454 0 0 0-.007.574l1.331 1.331-1.331 1.324a.4.4 0 1 0 .561.56l1.323-1.33 1.331 1.33a.4.4 0 1 0 .561-.56l-1.331-1.324 1.331-1.331a.418.418 0 0 0-.021-.6.464.464 0 0 0-.54.035zm-12.124 1.912a.413.413 0 0 0 .42.371h4.546a.406.406 0 0 0 .4-.392.418.418 0 0 0-.4-.4h-4.588a.424.424 0 0 0-.378.421zm-.96 4.322h7.309v7.312h-5.926a1.371 1.371 0 0 1-1.387-1.38V801.9zm8.1 0h7.313v5.932a1.371 1.371 0 0 1-1.387 1.38H877.9V801.9zm-4.847 1.386v1.78h-1.821a.411.411 0 0 0-.371.413.4.4 0 0 0 .413.378h1.779v1.779a.4.4 0 0 0 .393.4.413.413 0 0 0 .4-.4v-1.779h1.779a.407.407 0 0 0 .4-.392.418.418 0 0 0-.4-.4h-1.776v-1.78a.413.413 0 0 0-.441-.4.4.4 0 0 0-.351.401zm5.912 1.409a.4.4 0 0 0 .413.371h4.35a.408.408 0 0 0 .4-.393.418.418 0 0 0-.4-.4h-4.392a.413.413 0 0 0-.367.422zm0 1.575a.408.408 0 0 0 .413.379h4.35a.4.4 0 1 0 0-.792h-4.392a.411.411 0 0 0-.367.413z" transform="translate(-869 -793)"></path>
		</symbol>
	
		<symbol id="icon-calendar" viewBox="0 0 15 15">
			<defs><style>.cls-1{fill:#de3535;fill-rule:evenodd}</style></defs><path id="Иконка_календаря" data-name="Иконка календаря" class="cls-1" d="M548.955 667.479v.483h-1.433a2.47 2.47 0 0 0-2.525 2.41v9.218a2.471 2.471 0 0 0 2.525 2.41h9.955a2.47 2.47 0 0 0 2.523-2.41v-9.218a2.47 2.47 0 0 0-2.524-2.41h-1.434v-.483a.505.505 0 0 0-1.009 0v.483h-5.069v-.483a.5.5 0 0 0-.5-.482.489.489 0 0 0-.509.482zm-1.433 13.577a1.493 1.493 0 0 1-1.515-1.446v-6.827a.417.417 0 0 0 .162.019h12.681c.061 0 .1-.019.162-.019v6.827a1.493 1.493 0 0 1-1.515 1.446h-9.975zm2.645-6.827a.483.483 0 1 0 0 .964h.646a.483.483 0 1 0 0-.964h-.646zm2.019 0a.483.483 0 1 0 0 .964h.647a.482.482 0 1 0 0-.964h-.647zm2.02 0a.483.483 0 1 0 0 .964h.646a.483.483 0 1 0 0-.964h-.646zm2.019 0a.483.483 0 1 0 0 .964h.646a.483.483 0 1 0 0-.964h-.646zm-8.077 1.929a.483.483 0 1 0 0 .964h.646a.483.483 0 1 0 0-.964h-.646zm2.019 0a.483.483 0 1 0 0 .964h.646a.483.483 0 1 0 0-.964h-.646zm2.019 0a.483.483 0 1 0 0 .964h.647a.482.482 0 1 0 0-.964h-.647zm2.02 0a.483.483 0 1 0 0 .964h.646a.483.483 0 1 0 0-.964h-.646zm2.019 0a.483.483 0 1 0 0 .964h.646a.483.483 0 1 0 0-.964h-.646zm-8.077 1.928a.483.483 0 1 0 0 .964h.646a.483.483 0 1 0 0-.964h-.646zm2.019 0a.483.483 0 1 0 0 .964h.646a.483.483 0 1 0 0-.964h-.646zm2.019 0a.483.483 0 1 0 0 .964h.647a.482.482 0 1 0 0-.964h-.647zm2.02 0a.483.483 0 1 0 0 .964h.646a.483.483 0 1 0 0-.964h-.646z" transform="translate(-545 -667)"></path>
		</symbol>
	
		<symbol id="icon-card" viewBox="0 0 13 10">
			<defs><style>.cls-1{fill:#de3535;fill-rule:evenodd}</style></defs><path id="icon.card" class="cls-1" d="M510.773 260a1.8 1.8 0 0 0-1.773 1.817v6.364a1.8 1.8 0 0 0 1.773 1.819h9.454a1.8 1.8 0 0 0 1.773-1.819v-6.364a1.8 1.8 0 0 0-1.773-1.817h-9.454zm9.454 1.212a.6.6 0 0 1 .591.606v.91h-10.636v-.91a.6.6 0 0 1 .591-.606h9.454zm-9.454 7.576a.6.6 0 0 1-.591-.606v-4.242h10.636v4.242a.6.6 0 0 1-.591.606h-9.454zm.383-3.943h3.156v1.218h-3.156v-1.218zm0 1.812h6.719v1.25h-6.719v-1.25z" transform="translate(-509 -260)"></path>
		</symbol>
	
		<symbol id="icon-close" viewBox="0 0 12 12">
			<defs><style>.cls-1{fill:#111;fill-rule:evenodd}</style></defs><path id="icno-close" class="cls-1" d="M176 399a6 6 0 1 0 6-6 5.992 5.992 0 0 0-6 6zm8.84 2.067l-.773.773a.218.218 0 0 1-.32 0L182 400.093l-1.747 1.747a.218.218 0 0 1-.32 0l-.773-.773a.218.218 0 0 1 0-.32l1.747-1.747-1.747-1.747a.218.218 0 0 1 0-.32l.773-.773a.218.218 0 0 1 .32 0l1.747 1.747 1.747-1.747a.218.218 0 0 1 .32 0l.773.773a.218.218 0 0 1 0 .32L183.093 399l1.747 1.747a.218.218 0 0 1 0 .32z" transform="translate(-176 -393)"></path>
		</symbol>
	
		<symbol id="icon-clothes" viewBox="0 0 13 14">
			<defs><style>.cls-1{fill-rule:evenodd}</style></defs><path id="icon-clothes" class="cls-1" d="M19.7 304.124a.145.145 0 0 1 .242-.086.272.272 0 0 1 .05.209v1.2c.111.114.225.226.337.341a.223.223 0 0 0 .115.068c.3.088.59.18.886.268a.217.217 0 0 0 .152-.014c.247-.078.495-.151.742-.226a.281.281 0 0 0 .121-.072l.426-.4v-1.2a.226.226 0 0 1 .042-.173.147.147 0 0 1 .249.078c.01.471 0 .944.007 1.416.156.3.353.58.535.866.132.212.284.412.428.617-.1.211-.167.438-.26.652-.079.173-.124.358-.2.531-.1.231-.172.471-.259.705-.12.255-.207.521-.319.779a7.025 7.025 0 0 1 1.989 1.483 17.359 17.359 0 0 1 2.475 3.4c.066.128.163.238.225.368.1.2.21.4.311.6a.135.135 0 0 1-.012.117 1.215 1.215 0 0 1-.88.723 1.247 1.247 0 0 1-1.068-.283 1.167 1.167 0 0 1-.3.946 1.191 1.191 0 0 1-.927.392 1.227 1.227 0 0 1-.922-.425 1.173 1.173 0 0 1-.5.692 1.249 1.249 0 0 1-1.113.123 1.2 1.2 0 0 1-.763-.913A1.206 1.206 0 0 1 20.337 318a1.19 1.19 0 0 1-1.244-1.111c-.076.07-.131.159-.208.228a1.2 1.2 0 0 1-.842.322 1.186 1.186 0 0 1-1.207-1.117 1.253 1.253 0 0 1-1.154.073A1.145 1.145 0 0 1 15 315.5q.562-1.062 1.219-2.073a14.8 14.8 0 0 1 1.9-2.384 6.95 6.95 0 0 1 1.764-1.311c-.363-.9-.669-1.814-1.035-2.709.281-.446.575-.888.832-1.347a.591.591 0 0 0 .02-.169v-1.385m.963 2.009c.058.061.118.119.18.176l.2-.061-.377-.115m1.068.111c.034.016.068.028.1.043l.113-.11a5.393 5.393 0 0 0-.216.067m-.421.534c.119-.115.242-.226.361-.341-.1-.025-.19-.061-.287-.083-.132.028-.258.079-.388.112.104.106.204.216.318.314z" transform="translate(-15 -304)"></path>
		</symbol>
	
		<symbol id="icon-free-delivery" viewBox="0 0 103 50">
			<defs><style>.cls-1,.cls-2{fill:#111;fill-rule:evenodd}.cls-2{fill:#de3535}</style></defs><path id="Заливка_цветом_1" data-name="Заливка цветом 1" class="cls-1" d="M180.077 1025.03a1.075 1.075 0 1 0 0 2.15h19.082a1.075 1.075 0 1 0 0-2.15h-19.082z" transform="translate(-179 -997)"></path><path id="Заливка_цветом_2" data-name="Заливка цветом 2" class="cls-1" d="M187.015 1018.11a1.075 1.075 0 1 0 0 2.15h12.143a1.075 1.075 0 1 0 0-2.15h-12.143z" transform="translate(-179 -997)"></path><path id="Заливка_цветом_3" data-name="Заливка цветом 3" class="cls-1" d="M193.953 1011.2a1.075 1.075 0 1 0 0 2.15h5.2a1.075 1.075 0 1 0 0-2.15h-5.2z" transform="translate(-179 -997)"></path><path id="Заливка_цветом_4" data-name="Заливка цветом 4" class="cls-1" d="M273.39 1016.9l-5.631-10.9a1.071 1.071 0 0 0-.958-.58h-15.362v-7.357a1.076 1.076 0 0 0-1.078-1.074H206.64a1.076 1.076 0 0 0-1.078 1.074v36.2a1.075 1.075 0 0 0 1.078 1.07h5.887a1.075 1.075 0 1 0 0-2.15h-4.809v-34.045h41.564v34.042H233.2a1.075 1.075 0 1 0 0 2.15h17.162a2.307 2.307 0 0 0 1.424-1.57v-26.19h14.361l5.594 10.82a1.083 1.083 0 0 0 .839.58l6.364.7a1 1 0 0 1 .91 1l-2.621 19.12a1.091 1.091 0 0 0 .922 1.22c.05 0 .1.01.148.01a1.087 1.087 0 0 0 1.067-.93l2.627-19.2a3.158 3.158 0 0 0-2.817-3.36z" transform="translate(-179 -997)"></path><path id="Заливка_цветом_5" data-name="Заливка цветом 5" class="cls-1" d="M266.766 1018.12l-3.083-6.19a1.073 1.073 0 0 0-.966-.6h-5.492a1.074 1.074 0 0 0-1.078 1.07v6.19a1.076 1.076 0 0 0 1.078 1.08h8.575a1.075 1.075 0 0 0 .966-1.55zm-8.464-4.64h3.747l2.012 4.04H258.3v-4.04z" transform="translate(-179 -997)"></path><path id="Заливка_цветом_6" data-name="Заливка цветом 6" class="cls-1" d="M235.586 1038.87a1.075 1.075 0 1 0 0 2.15h19.081a1.075 1.075 0 1 0 0-2.15h-19.081z" transform="translate(-179 -997)"></path><path id="Заливка_цветом_7" data-name="Заливка цветом 7" class="cls-1" d="M258.475 1039.04a8 8 0 1 0 8-7.97 7.989 7.989 0 0 0-8 7.97zm2.156 0a5.841 5.841 0 1 1 5.841 5.83 5.837 5.837 0 0 1-5.841-5.83z" transform="translate(-179 -997)"></path><path id="Заливка_цветом_8" data-name="Заливка цветом 8" class="cls-1" d="M215.215 1039.04a8 8 0 1 0 8-7.97 7.989 7.989 0 0 0-8 7.97zm2.156 0a5.84 5.84 0 1 1 5.841 5.83 5.836 5.836 0 0 1-5.841-5.83z" transform="translate(-179 -997)"></path><path id="_0_руб." data-name="0 руб." class="cls-2" d="M216.562 1010.79a2.934 2.934 0 0 0-4.726-.05 6.607 6.607 0 0 0-.778 3.62 6.452 6.452 0 0 0 .8 3.55 2.927 2.927 0 0 0 4.726.04 8.516 8.516 0 0 0-.022-7.16zm-3.6.85a1.357 1.357 0 0 1 2.5.02 9.38 9.38 0 0 1 0 5.4 1.367 1.367 0 0 1-2.5.01 9.645 9.645 0 0 1-.003-5.43zm14.232 6.52a5.226 5.226 0 0 0 .013-5.36 2.45 2.45 0 0 0-2.048-.95 2.34 2.34 0 0 0-2.094 1.07h-.076c-.106-.5-.176-.81-.21-.94h-1.209v10.14h1.492v-2.87q0-.195-.089-1.08h.089a2.691 2.691 0 0 0 4.129-.01zm-1.2-4.48a3.146 3.146 0 0 1 .416 1.78 3.26 3.26 0 0 1-.419 1.81 1.336 1.336 0 0 1-1.193.64 1.5 1.5 0 0 1-1.327-.58 3.262 3.262 0 0 1-.406-1.85v-.23a2.7 2.7 0 0 1 .409-1.66 1.542 1.542 0 0 1 1.3-.52 1.376 1.376 0 0 1 1.217.61zm5.329 5.32l-.26.66a1.577 1.577 0 0 1-1.517 1.25 3.525 3.525 0 0 1-.768-.08v1.18a3.87 3.87 0 0 0 .964.11 2.849 2.849 0 0 0 2.73-2.19l3-7.95h-1.612q-1.46 4.23-1.612 4.73a6.644 6.644 0 0 0-.21.85h-.05a7.586 7.586 0 0 0-.432-1.6l-1.428-3.98H228.5zm5.719-1.02a2.863 2.863 0 0 0 2.419 1.15 3.187 3.187 0 0 0 2.434-.93 3.66 3.66 0 0 0 .879-2.62 3.363 3.363 0 0 0-.723-2.3 2.543 2.543 0 0 0-2.019-.82 2.823 2.823 0 0 0-1.251.29 2.357 2.357 0 0 0-.945.82h-.095a3.718 3.718 0 0 1 .51-1.91 2.1 2.1 0 0 1 1.438-.82c.643-.12 1.659-.29 3.047-.5l-.209-1.31c-1.143.17-2.152.34-3.028.52a3.725 3.725 0 0 0-2.536 1.62 6.82 6.82 0 0 0-.8 3.61 5.135 5.135 0 0 0 .876 3.2zm1.136-.84a4.391 4.391 0 0 1-.476-2.27 2.538 2.538 0 0 1 .5-.61 3.042 3.042 0 0 1 .714-.47 2.027 2.027 0 0 1 .8-.17q1.5 0 1.5 2.1 0 2.19-1.663 2.19a1.538 1.538 0 0 1-1.378-.77zm6.412 1.78a.88.88 0 0 0 .7.26.891.891 0 0 0 .7-.26 1.006 1.006 0 0 0 .245-.71 1.018 1.018 0 0 0-.241-.71.923.923 0 0 0-.705-.25.911.911 0 0 0-.7.25.965.965 0 0 0-.242.71 1 1 0 0 0 .24.71z" transform="translate(-179 -997)"></path>
		</symbol>
	
		<symbol id="icon-free-fitting" viewBox="0 0 89 50">
			<defs><style>.cls-1,.cls-2{fill-rule:evenodd}.cls-2{fill:#de3535}</style></defs><path id="Заливка_цветом_1" data-name="Заливка цветом 1" class="cls-1" d="M691.539 1034.27l-39.974-18.46v-4a7.45 7.45 0 1 0-8.533-7.37 1.065 1.065 0 0 0 2.13 0 5.338 5.338 0 1 1 5.338 5.32 1.068 1.068 0 0 0-1.065 1.07v4.98l-39.981 18.46a6.422 6.422 0 0 0-3.453 5.24v.06a7.461 7.461 0 0 0 7.461 7.44h74.077a7.46 7.46 0 0 0 7.461-7.44v-.06a6.422 6.422 0 0 0-3.461-5.24zm-51.464 10.62h-26.614a5.335 5.335 0 0 1-5.332-5.29 4.243 4.243 0 0 1 2.226-3.4l40.145-18.54 40.139 18.53a4.26 4.26 0 0 1 2.232 3.41 5.335 5.335 0 0 1-5.332 5.29h-47.464z" transform="translate(-606 -997)"></path><path id="_0_руб." data-name="0 руб." class="cls-2" d="M638.562 1030.79a2.934 2.934 0 0 0-4.726-.05 6.607 6.607 0 0 0-.778 3.62 6.452 6.452 0 0 0 .8 3.55 2.927 2.927 0 0 0 4.726.04 8.516 8.516 0 0 0-.022-7.16zm-3.6.85a1.357 1.357 0 0 1 2.5.02 9.38 9.38 0 0 1 0 5.4 1.367 1.367 0 0 1-2.5.01 9.645 9.645 0 0 1-.003-5.43zm14.232 6.52a5.226 5.226 0 0 0 .013-5.36 2.45 2.45 0 0 0-2.048-.95 2.34 2.34 0 0 0-2.094 1.07h-.076c-.106-.5-.176-.81-.21-.94h-1.209v10.14h1.492v-2.87q0-.2-.089-1.08h.089a2.691 2.691 0 0 0 4.129-.01zm-1.2-4.48a3.146 3.146 0 0 1 .416 1.78 3.26 3.26 0 0 1-.419 1.81 1.336 1.336 0 0 1-1.193.64 1.5 1.5 0 0 1-1.327-.58 3.262 3.262 0 0 1-.406-1.85v-.23a2.7 2.7 0 0 1 .409-1.66 1.542 1.542 0 0 1 1.3-.52 1.376 1.376 0 0 1 1.217.61zm5.329 5.32l-.26.66a1.577 1.577 0 0 1-1.517 1.25 3.525 3.525 0 0 1-.768-.08v1.18a3.87 3.87 0 0 0 .964.11 2.849 2.849 0 0 0 2.73-2.19l3-7.95h-1.612q-1.46 4.23-1.612 4.73a6.644 6.644 0 0 0-.21.85h-.05a7.586 7.586 0 0 0-.432-1.6l-1.428-3.98H650.5zm5.719-1.02a2.863 2.863 0 0 0 2.419 1.15 3.189 3.189 0 0 0 2.434-.93 3.66 3.66 0 0 0 .879-2.62 3.363 3.363 0 0 0-.723-2.3 2.543 2.543 0 0 0-2.019-.82 2.816 2.816 0 0 0-1.25.29 2.354 2.354 0 0 0-.946.82h-.095a3.718 3.718 0 0 1 .51-1.91 2.1 2.1 0 0 1 1.438-.82c.643-.12 1.659-.29 3.047-.5l-.209-1.31c-1.143.17-2.152.34-3.028.52a3.725 3.725 0 0 0-2.536 1.62 6.82 6.82 0 0 0-.8 3.61 5.135 5.135 0 0 0 .876 3.2zm1.136-.84a4.391 4.391 0 0 1-.476-2.27 2.538 2.538 0 0 1 .5-.61 3.042 3.042 0 0 1 .714-.47 2.027 2.027 0 0 1 .8-.17q1.5 0 1.5 2.1 0 2.19-1.663 2.19a1.538 1.538 0 0 1-1.378-.77zm6.412 1.78a.88.88 0 0 0 .7.26.891.891 0 0 0 .7-.26 1.157 1.157 0 0 0 0-1.42 1.108 1.108 0 0 0-1.4 0 .965.965 0 0 0-.242.71 1 1 0 0 0 .239.71z" transform="translate(-606 -997)"></path>
		</symbol>
	
		<symbol id="icon-free-return" viewBox="0 0 110 52.56">
			<defs><style>.cls-1,.cls-2{fill:#111;fill-rule:evenodd}.cls-2{fill:#de3535}</style></defs><path id="Заливка_цветом_1" data-name="Заливка цветом 1" class="cls-1" d="M1022.01 1034.54a12.977 12.977 0 0 0 12.9 13.02h21.3a12.977 12.977 0 0 0 12.9-13.02v-3.09l14-7.67-14-7.66v-3.09a12.985 12.985 0 0 0-12.9-13.03h-21.3a12.985 12.985 0 0 0-12.9 13.03v21.51zm34.2-32.55a10.994 10.994 0 0 1 10.93 11.04v4.27l11.84 6.48-11.84 6.49v4.27a10.994 10.994 0 0 1-10.93 11.04h-21.3a10.994 10.994 0 0 1-10.93-11.04v-21.51a10.994 10.994 0 0 1 10.93-11.04h21.3z" transform="translate(-1022 -995)"></path><path id="Заливка_цветом_2" data-name="Заливка цветом 2" class="cls-1" d="M1053.87 1012.03h-3.14a.984.984 0 0 0-.99.98 3.9 3.9 0 0 1-7.8 0 .992.992 0 0 0-1-.98h-3.16a.983.983 0 0 0-.73.33l-8.32 7.13a.973.973 0 0 0-.34.67 1 1 0 0 0 .24.72l4.86 5.51a1 1 0 0 0 1.4.1l1.9-1.63v11.21a.984.984 0 0 0 .99.98h16.09a.992.992 0 0 0 1-.98v-11.22l1.91 1.64a1.017 1.017 0 0 0 1.41-.1l4.86-5.51a1 1 0 0 0 .24-.72.973.973 0 0 0-.34-.67l-8.35-7.15a1 1 0 0 0-.73-.31zm.66 9.92a1.017 1.017 0 0 0-1.07-.15.988.988 0 0 0-.58.89v12.4h-14.1v-12.38a.977.977 0 0 0-.58-.89 1.017 1.017 0 0 0-1.07.15l-2.79 2.39-3.56-4.03 7.4-6.34h1.85a5.9 5.9 0 0 0 11.61 0h1.86l7.39 6.34-3.55 4.03z" transform="translate(-1022 -995)"></path><path id="Заливка_цветом_1-2" data-name="Заливка цветом 1" class="cls-1" d="M1093.37 995.314l-10.02 10.286a1.338 1.338 0 0 0 0 1.76l10.02 10.29a1.094 1.094 0 0 0 1.58-.05 1.331 1.331 0 0 0-.05-1.71l-7.98-8.19h28.93c7.88 0 13.92 6.95 13.92 15.72s-5.99 15.15-13.92 15.15h-31.73a1.214 1.214 0 0 0 0 2.42h31.73c9.05 0 16.15-7.57 16.15-17.57s-7.06-18.14-16.15-18.14h-28.93l7.98-8.207a1.318 1.318 0 0 0 .27-1.394 1.056 1.056 0 0 0-1.03-.687 1.186 1.186 0 0 0-.77.322z" transform="translate(-1022 -995)"></path><path id="_0_руб." data-name="0 руб." class="cls-2" d="M1093.56 1020.79a2.928 2.928 0 0 0-4.72-.05 6.6 6.6 0 0 0-.78 3.62 6.391 6.391 0 0 0 .8 3.55 2.921 2.921 0 0 0 4.72.04 8.506 8.506 0 0 0-.02-7.16zm-3.6.85a1.356 1.356 0 0 1 2.5.02 9.312 9.312 0 0 1 0 5.4 1.366 1.366 0 0 1-2.5.01 9.645 9.645 0 0 1 0-5.43zm14.23 6.52a4.27 4.27 0 0 0 .75-2.68 4.313 4.313 0 0 0-.74-2.68 2.443 2.443 0 0 0-2.04-.95 2.357 2.357 0 0 0-2.1 1.07h-.07c-.11-.5-.18-.81-.21-.94h-1.21v10.14h1.49v-2.87q0-.2-.09-1.08h.09a2.692 2.692 0 0 0 4.13-.01zm-1.2-4.48a3.12 3.12 0 0 1 .42 1.78 3.251 3.251 0 0 1-.42 1.81 1.345 1.345 0 0 1-1.2.64 1.488 1.488 0 0 1-1.32-.58 3.266 3.266 0 0 1-.41-1.85v-.23a2.717 2.717 0 0 1 .41-1.66 1.545 1.545 0 0 1 1.3-.52 1.374 1.374 0 0 1 1.22.61zm5.33 5.32l-.26.66a1.577 1.577 0 0 1-1.52 1.25 3.572 3.572 0 0 1-.77-.08v1.18a3.956 3.956 0 0 0 .97.11 2.855 2.855 0 0 0 2.73-2.19l3-7.95h-1.61q-1.455 4.23-1.61 4.73a7.4 7.4 0 0 0-.21.85h-.05a7.888 7.888 0 0 0-.44-1.6l-1.42-3.98h-1.63zm5.72-1.02a2.858 2.858 0 0 0 2.42 1.15 3.18 3.18 0 0 0 2.43-.93 3.643 3.643 0 0 0 .88-2.62 3.372 3.372 0 0 0-.72-2.3 2.545 2.545 0 0 0-2.02-.82 2.8 2.8 0 0 0-1.25.29 2.358 2.358 0 0 0-.95.82h-.09a3.6 3.6 0 0 1 .51-1.91 2.075 2.075 0 0 1 1.44-.82c.64-.12 1.66-.29 3.04-.5l-.21-1.31c-1.14.17-2.15.34-3.02.52a3.731 3.731 0 0 0-2.54 1.62 6.827 6.827 0 0 0-.8 3.61 5.161 5.161 0 0 0 .88 3.2zm1.14-.84a4.357 4.357 0 0 1-.48-2.27 2.739 2.739 0 0 1 .5-.61 3.077 3.077 0 0 1 .72-.47 2.016 2.016 0 0 1 .8-.17q1.5 0 1.5 2.1c0 1.46-.55 2.19-1.66 2.19a1.518 1.518 0 0 1-1.38-.77zm6.41 1.78a.869.869 0 0 0 .69.26.914.914 0 0 0 .71-.26 1.17 1.17 0 0 0 0-1.42.932.932 0 0 0-.71-.25.9.9 0 0 0-.69.25.968.968 0 0 0-.24.71 1 1 0 0 0 .24.71z" transform="translate(-1022 -995)"></path>
		</symbol>
	
		<symbol id="icon-home" viewBox="0 0 13 11">
			<defs><style>.cls-1{fill:#252525;fill-rule:evenodd}</style></defs><path id="icon-home" class="cls-1" d="M93 254.958L86.5 249l-2.648 2.337v-1.375h-1.926v3.163L80 254.958h1.926V260h9.148v-5.042H93z" transform="translate(-80 -249)"></path>
		</symbol>
	
		<symbol id="icon-lock" viewBox="0 0 12 15">
			<defs><style>.cls-1{fill:#333;fill-rule:evenodd}</style></defs><path id="ИКОНКА._Замочек" data-name="ИКОНКА. Замочек" class="cls-1" d="M40 706h12v-8.318H40V706zm6.7-1.634h-1.3v-2.183a1.6 1.6 0 1 1 1.3 0v2.183zm-3.211-8.174a2.684 2.684 0 1 1 5.118 0h-.008a2.1 2.1 0 0 1-.247.514h1.884a4.4 4.4 0 1 0-8.383 0h1.88a2.1 2.1 0 0 1-.245-.515z" transform="translate(-40 -691)"></path>
		</symbol>
	
		<symbol id="icon-logout" viewBox="0 0 11 12">
			<defs><style>.cls-1{fill:#de3535;fill-rule:evenodd}</style></defs><path id="icon-logout" class="cls-1" d="M1215.37 20v1.909h-3.48v2.182h3.48V26l4.63-3zm4.63-1.909V17h-11v12h11v-1.091h-9.84v-9.818h9.84z" transform="translate(-1209 -17)"></path>
		</symbol>
	
		<symbol id="icon-money" viewBox="0 0 21 22">
			<defs><style>.cls-1{fill:#de3535;fill-rule:evenodd}</style></defs><path id="icon-money" class="cls-1" d="M552.834 608.466a7.732 7.732 0 0 0-.535.656 3.163 3.163 0 0 0-.267-.228 1.085 1.085 0 0 0-.706-.295c-1.173.115-2.661.637-3.157 1.521a.835.835 0 0 0 .143.951 10.406 10.406 0 0 0 2.423 1.635 34.148 34.148 0 0 0-4.226 3.831 8.94 8.94 0 0 0-2.509 6.037 6.79 6.79 0 0 0 3.549 5.637 14.078 14.078 0 0 0 13.832-.057 6.833 6.833 0 0 0 3.619-5.627 10.052 10.052 0 0 0-1.985-5.961 19.112 19.112 0 0 0-4.645-4.183c.543-.514 1.221-.951 1.669-1.474a1.023 1.023 0 0 0-.238-1.559c-1.517-1.017-4.169-1.34-6.068-1.35a1.282 1.282 0 0 0-.899.466zm1.125 1.16a15.482 15.482 0 0 1 4.274.761 10.419 10.419 0 0 0-1.421 1.292 16.441 16.441 0 0 0-1.975.162 7.7 7.7 0 0 1-2.337-.009 29.499 29.499 0 0 1-2.242-1.331 3.383 3.383 0 0 1 .878-.248 2.408 2.408 0 0 0 1.154.752 3 3 0 0 0 1.669-1.379zm7.756 7.89a8.278 8.278 0 0 1 1.669 4.982c.058 2.177-1.488 3.431-2.842 4.278a12.212 12.212 0 0 1-6.01 1.616 12.437 12.437 0 0 1-6.153-1.55 5.077 5.077 0 0 1-2.767-4.278 8.439 8.439 0 0 1 2.118-4.971 39.994 39.994 0 0 1 4.655-4.155 9.369 9.369 0 0 0 2.633 0c.649-.047 1.317-.152 1.88-.152a19.047 19.047 0 0 1 4.817 4.23zm-3.446 3.895a3.617 3.617 0 0 0 0-4.557 3.255 3.255 0 0 0-2.409-.814h-4.023v5.012h-1.377v1.172h1.377v1.117h-1.377v1.173h1.377v1.986h1.395v-1.989H557v-1.173h-3.768v-1.117h2.628a3.259 3.259 0 0 0 2.409-.81zm-2.879-4.2a2.573 2.573 0 0 1 1.741.49 2.129 2.129 0 0 1 0 2.858 2.568 2.568 0 0 1-1.741.491h-2.158v-3.839h2.158z" transform="translate(-544 -608)"></path>
		</symbol>
	
		<symbol id="icon-open-window" viewBox="0 0 14 14">
			<defs><style>.cls-1{fill:#de3535;fill-rule:evenodd}</style></defs><path id="icon-open-window" class="cls-1" d="M576.354 2520.35a.5.5 0 0 1-.707-.7l5.646-5.65H577.5a.5.5 0 0 1 0-1h5a.5.5 0 0 1 .5.5v5a.5.5 0 0 1-1 0v-3.79zM570.5 2515a1.5 1.5 0 0 0-1.5 1.5v9a1.5 1.5 0 0 0 1.5 1.5h9a1.511 1.511 0 0 0 1.063-.44 1.493 1.493 0 0 0 .439-1.06v-2.5a.5.5 0 0 0-1 0v2.5a.505.505 0 0 1-.5.5h-9a.5.5 0 0 1-.5-.5v-9a.5.5 0 0 1 .5-.5H573a.5.5 0 0 0 0-1h-2.5z" transform="translate(-569 -2513)"></path>
		</symbol>
	
		<symbol id="icon-phone" viewBox="0 0 13 12.969">
			<defs><style>.cls-1{fill:#de3535;fill-rule:evenodd}</style></defs><path id="ИКОНКА._Телефон" data-name="ИКОНКА. Телефон" class="cls-1" d="M43.674 807.021a1.4 1.4 0 0 0-.649.046 3.2 3.2 0 0 0-1.233.864l-.227.227c-.193.192-.465.428-.733.707-.008.009-.017.011-.026.02a.472.472 0 0 0-.052.052 2.718 2.718 0 0 0-.727 1.409 3.343 3.343 0 0 0 .454 2.078h.006a17.129 17.129 0 0 0 7.1 7.1 2.953 2.953 0 0 0 2.809.214 5.775 5.775 0 0 0 1.453-1.3l.227-.227a3.193 3.193 0 0 0 .863-1.227 1.477 1.477 0 0 0-.188-1.241 9.757 9.757 0 0 0-2.329-1.928 1.476 1.476 0 0 0-1.155-.344 1.637 1.637 0 0 0-.843.526l-.558.558a.784.784 0 0 1-.266.111.448.448 0 0 1-.428-.15h-.008c-.3-.257-.588-.523-.869-.8s-.548-.57-.8-.87l-.006-.006a.442.442 0 0 1-.143-.429.78.78 0 0 1 .117-.279l.537-.546a1.646 1.646 0 0 0 .532-.844 1.48 1.48 0 0 0-.344-1.156 9.767 9.767 0 0 0-1.927-2.337 1.51 1.51 0 0 0-.59-.228zm-.156 1.007a.5.5 0 0 1 .169.091 13.255 13.255 0 0 1 1.667 2.085h.007a.42.42 0 0 1 .156.33 1.009 1.009 0 0 1-.246.319l-.616.616a.537.537 0 0 0-.084.111 1.914 1.914 0 0 0-.253.669 1.589 1.589 0 0 0 .389 1.266v.007H44.7a16.546 16.546 0 0 0 1.784 1.778v.007h.007a1.6 1.6 0 0 0 1.272.389 1.856 1.856 0 0 0 .668-.259.542.542 0 0 0 .11-.078l.616-.617a1.054 1.054 0 0 1 .312-.247.431.431 0 0 1 .337.156 13.223 13.223 0 0 1 2.082 1.669.3.3 0 0 1 .058.351 2.446 2.446 0 0 1-.6.811l-.227.227a6.109 6.109 0 0 1-1.2 1.111 1.774 1.774 0 0 1-1.842-.208 16.091 16.091 0 0 1-6.669-6.675 2.307 2.307 0 0 1-.35-1.435 1.634 1.634 0 0 1 .467-.864c.224-.245.507-.475.778-.747l.227-.227a2.5 2.5 0 0 1 .817-.61.368.368 0 0 1 .175-.026z" transform="translate(-40 -807.031)"></path>
		</symbol>
	
		<symbol id="icon-photo" viewBox="0 0 20 15">
			<defs><style>.cls-1{fill:#de3535;fill-rule:evenodd}</style></defs><path id="icon-photo" class="cls-1" d="M102.541 829.124l-1.06-1.124h-4.31l-1.06 1.125H95.1a2.055 2.055 0 0 0-2.1 2V841a2.056 2.056 0 0 0 2.1 2h15.8a2.055 2.055 0 0 0 2.1-2v-9.874a2.076 2.076 0 0 0-2.12-2h-8.339zM112.034 841a1.131 1.131 0 0 1-1.154 1.1H95.1a1.131 1.131 0 0 1-1.154-1.1v-9.874a1.131 1.131 0 0 1 1.154-1.1h1.437l1.06-1.124h3.486l1.06 1.124h8.757a1.132 1.132 0 0 1 1.154 1.1V841h-.024zm-9.05-8.344a3.566 3.566 0 1 1-3.734 3.563 3.652 3.652 0 0 1 3.734-3.563zm-5.8-.656a.829.829 0 1 1-.875.828.852.852 0 0 1 .879-.828z" transform="translate(-93 -828)"></path>
		</symbol>
	
		<symbol id="icon-pin" viewBox="0 0 13 20">
			<defs><style>.cls-1{fill:#de3535;fill-rule:evenodd}</style></defs><path id="icon_pin" data-name="icon pin" class="cls-1" d="M250 1097.26a6.273 6.273 0 0 0 4.233 5.86l2.27 7.88 2.268-7.88a6.273 6.273 0 0 0 4.235-5.86 6.508 6.508 0 0 0-13.006 0zm3.9 0a2.6 2.6 0 1 1 2.6 2.5 2.552 2.552 0 0 1-2.6-2.5z" transform="translate(-250 -1091)"></path>
		</symbol>
	
		<symbol id="icon-print" viewBox="0 0 14 13">
			<defs><style>.cls-1{fill:#de3535;fill-rule:evenodd}</style></defs><path id="icon_print" class="cls-1" d="M1101.12 295.062h2.94v.969h-2.94v-.969zm1.97-5.061h-8.16v3.174H1092v7.449h2.93V303h8.14v-2.377h2.93v-7.449h-2.91V290zm0 9.682v-1.419h-8.16v1.419h-1.95v-5.55h12.06v5.55h-1.95z" transform="translate(-1092 -290)"></path>
		</symbol>
	
		<symbol id="icon-programm" viewBox="0 0 55 80">
			<defs><style>.cls-1{fill:#b9b9b9;fill-rule:evenodd}</style></defs><path id="icon-programm" class="cls-1" d="M1184.2 1052.06v-2.53h-3.1c-.5-3.11-2.98-5.54-4.6-5.54s-4.1 2.43-4.6 5.54h-3.1v2.53h-18.1a1.72 1.72 0 0 0-1.71 1.73v68.48a1.726 1.726 0 0 0 1.71 1.73h51.6a1.726 1.726 0 0 0 1.71-1.73v-68.48a1.72 1.72 0 0 0-1.71-1.73h-18.1zm-6.31-3.91a1.39 1.39 0 1 1-1.39-1.4 1.4 1.4 0 0 1 1.39 1.4zm-23.27 71.02v-62.29h14.18v1.6h15.4v-1.6h14.18v62.29h-43.76zm3.82-49.05h3.34v3.38h-3.34v-3.38zm0 13.54h3.34v3.34h-3.34v-3.34zm0 13.5h3.34v3.34h-3.34v-3.34zm8.78-27.04h24.5v.94h-24.5v-.94zm0 2.41h8.65v.97h-8.65v-.97zm0 11.13h24.5v.9h-24.5v-.9zm0 2.4h8.65v.94h-8.65v-.94zm0 11.1h24.5v.96h-24.5v-.96zm0 2.43h8.65v.91h-8.65v-.91z" transform="translate(-1149 -1044)"></path>
		</symbol>
	
		<symbol id="icon-question" viewBox="0 0 15 15">
			<defs><style>.cls-1{fill:#111;fill-rule:evenodd}</style></defs><path id="icon-question" class="cls-1" d="M880.883 619a4.89 4.89 0 0 0-4.883 4.883v5.233a4.89 4.89 0 0 0 4.883 4.884h5.233a4.89 4.89 0 0 0 4.884-4.884v-5.233a4.891 4.891 0 0 0-4.884-4.883h-5.233zm1.732 10.928a.878.878 0 1 1 .878.878.878.878 0 0 1-.878-.879zm1.627-2.175v.441h-1.566v-.522a2.277 2.277 0 0 1 1.009-1.822 1.552 1.552 0 0 0 .847-1.253.911.911 0 0 0-.986-1.045 1.283 1.283 0 0 0-1.2 1.509h-1.706a2.737 2.737 0 0 1 2.82-2.867c2.193 0 2.89 1.347 2.89 2.24a2.16 2.16 0 0 1-.975 1.961 2.169 2.169 0 0 0-1.133 1.357z" transform="translate(-876 -619)"></path>
		</symbol>
	
		<symbol id="icon-question-hover" viewBox="0 0 15 15">
			<defs><style>.cls-1{fill:#de3535;fill-rule:evenodd}</style></defs><path id="icon-question-hover" class="cls-1" d="M651.883 1048a4.888 4.888 0 0 0-4.884 4.88v5.24a4.888 4.888 0 0 0 4.884 4.88h5.233a4.889 4.889 0 0 0 4.885-4.88v-5.24a4.89 4.89 0 0 0-4.885-4.88h-5.233zm1.731 10.93a.879.879 0 1 1 .879.88.877.877 0 0 1-.879-.88zm1.628-2.18v.44h-1.566v-.52a2.273 2.273 0 0 1 1.009-1.82 1.556 1.556 0 0 0 .847-1.25.914.914 0 0 0-.986-1.05 1.285 1.285 0 0 0-1.2 1.51h-1.706a2.739 2.739 0 0 1 2.82-2.87c2.193 0 2.89 1.35 2.89 2.24a2.15 2.15 0 0 1-.975 1.96 2.183 2.183 0 0 0-1.133 1.36z" transform="translate(-647 -1048)"></path>
		</symbol>
	
		<symbol id="icon-ruler" viewBox="0 0 32 11">
			<defs><style>.cls-1{fill:#111;fill-rule:evenodd}</style></defs><path id="icon-ruler" class="cls-1" d="M829.217 714a5.506 5.506 0 1 0 0-11h-25.86a.347.347 0 0 0-.355.337v10.315a.348.348 0 0 0 .355.337zM807.6 703.683v4.06h.709v-4.06h3.2v2.707l.717-.007v-2.707h3.308v4.058h.709v-4.06h3.092v2.706h.712v-2.707h3.2v4.06h.709l.007-4.053h5.23a4.818 4.818 0 1 1 0 9.634h-25.479v-9.641zm23.559 5.6a1.979 1.979 0 0 0-.468-2.237 2.24 2.24 0 0 0-2.352-.445 2.053 2.053 0 0 0-1.332 1.9 2.108 2.108 0 0 0 2.157 2.052 2.163 2.163 0 0 0 1.998-1.272zm-2-2.162a1.374 1.374 0 1 1-1.446 1.375 1.409 1.409 0 0 1 1.446-1.375z" transform="translate(-803 -703)"></path>
		</symbol>
	
		<symbol id="icon-sales" viewBox="0 0 18 15">
			<defs><style>.cls-1{fill:#de3535;fill-rule:evenodd}</style></defs><path id="icon-sales" class="cls-1" d="M24.319 380.515a.741.741 0 0 0-.579-.792.719.719 0 0 0-.6.776v.048a.72.72 0 0 0 .566.734.661.661 0 0 0 .6-.67c.007-.038.01-.077.013-.096zm2.909-4.129a22.47 22.47 0 0 0-7.219-2.349l-.046-.007a3.138 3.138 0 0 0-3.224 1.627l-1.372 2.581a3.1 3.1 0 0 0 .478 3.581l.155.162a22.4 22.4 0 0 0 5.915 4.508l4.11 2.163a3.042 3.042 0 0 0 4.1-1.258l2.521-4.743a3.011 3.011 0 0 0-1.263-4.08zm-8.777 3.833a1.764 1.764 0 0 1-.74-2.39 1.782 1.782 0 0 1 2.4-.737 1.764 1.764 0 0 1 .74 2.39 1.782 1.782 0 0 1-2.399.737zm3.991 1.02v-.012a.047.047 0 0 0 0-.007.808.808 0 0 1-.032-.09.011.011 0 0 1 0-.009 3.02 3.02 0 0 1-.11-.8 1.614 1.614 0 0 1 .473-1.04 1.346 1.346 0 0 1 2.023.093 1.811 1.811 0 0 1 .088 2.148 1.36 1.36 0 0 1-2.36-.129 1.643 1.643 0 0 1-.082-.154zm1.591 3.729a.491.491 0 0 1-.4-.782l3.458-4.666a.5.5 0 0 1 .4-.2.491.491 0 0 1 .4.782l-3.458 4.666a.5.5 0 0 1-.4.2zm3.173-.009a1.764 1.764 0 0 1-.049-2.744 1.406 1.406 0 0 1 2.217.9 4.291 4.291 0 0 1 .068.464A1.571 1.571 0 0 1 28.1 385.2a1.226 1.226 0 0 1-.894-.241zm.265-1.749a1.156 1.156 0 0 0-.068.48.652.652 0 0 0 .592.653.66.66 0 0 0 .557-.682c0-.023 0-.049.01-.126a1.789 1.789 0 0 0-.068-.312.581.581 0 0 0-.508-.432.553.553 0 0 0-.514.419z" transform="translate(-15 -374)"></path>
		</symbol>
	
		<symbol id="icon-search" viewBox="0 0 14 14">
			<defs><style>.cls-1{fill:#fff;fill-rule:evenodd}</style></defs><path id="icno-search" class="cls-1" d="M1201.53 178.1a5.208 5.208 0 1 0-1.41 1.419l4.37 4.383a.441.441 0 0 0 .61-.072l.74-.736a.453.453 0 0 0 .07-.607zm-8.12-2.894a3.79 3.79 0 1 1 3.79 3.8 3.8 3.8 0 0 1-3.79-3.796z" transform="translate(-1192 -170)"></path>
		</symbol>
	
		<symbol id="icon-shoes" viewBox="0 0 15.031 14">
			<defs><style>.cls-1{fill-rule:evenodd}</style></defs><path id="icon-shoes" class="cls-1" d="M22.313 274.863a1.47 1.47 0 0 1-1.5.514c-1.128-.129-1.379-.129-1.88.386s-.879.642-2.384.9-2.257 1.284-.627 2.056a23.6 23.6 0 0 0 4.825 1.275l1.441.006s1.129-.385 2.258-3.469c1-2.956 2.759-3.212 2.759-3.212s.239 4.276.134 5.323a.342.342 0 0 0 0 .037.769.769 0 0 0 0 .1.513.513 0 0 0 .313.578.247.247 0 0 0 .2-.132c.012-.146.034-.407.068-.751.184-1.881.721-6.266 1.85-8.137-.047-1.133.241-2.023-2.349-4.341z" transform="translate(-14.969 -266)"></path>
		</symbol>
	
		<symbol id="icon-unknown-user" viewBox="0 0 50 44">
			<defs><style>.cls-1{fill:#de3535;fill-rule:evenodd}</style></defs><path id="icon_user" class="cls-1" d="M1189.7 985.693V983a10.632 10.632 0 1 0-21.25 0v2.693a10.632 10.632 0 1 0 21.25 0zm12.76 20.057v-.07c-.47-1.8-1.58-3.07-3.88-4.34h-.08l-8.8-4.34a1.538 1.538 0 0 0-1.59.225 13.8 13.8 0 0 1-18.23 0 1.513 1.513 0 0 0-1.59-.225l-8.8 4.343h-.08c-2.22 1.27-3.41 2.54-3.88 4.34v.07l-1.51 8.76a1.291 1.291 0 0 0 .32 1.05 1.323 1.323 0 0 0 1.03.45h47.09a1.323 1.323 0 0 0 1.03-.45.918.918 0 0 0 .48-1.05z" transform="translate(-1154 -972)"></path>
		</symbol>
	
		<symbol id="icon-user" viewBox="0 0 14 20">
			<defs><style>.cls-1{fill:#111;fill-rule:evenodd}</style></defs><path id="icon-user" class="cls-1" d="M224.406 150.663a4.688 4.688 0 0 0 1.067 2.98 7.181 7.181 0 0 0-3.473 6.194V164a.668.668 0 0 0 .383.6 16.38 16.38 0 0 0 13.234 0 .668.668 0 0 0 .383-.6v-4.16a7.181 7.181 0 0 0-3.473-6.194 4.688 4.688 0 0 0 1.067-2.98 4.595 4.595 0 1 0-9.188-.003zm7.875 0A3.281 3.281 0 1 1 229 147.33a3.3 3.3 0 0 1 3.281 3.333zM229 155.33a4.508 4.508 0 0 0 2.481-.743 5.831 5.831 0 0 1 3.207 5.25v3.708a15.028 15.028 0 0 1-11.376 0v-3.708a5.829 5.829 0 0 1 3.207-5.25 4.506 4.506 0 0 0 2.481.743z" transform="translate(-222 -146)"></path>
		</symbol>
	
		<symbol id="icon_user" viewBox="0 0 9 8">
			<defs><style>.cls-1{fill:#151515;fill-rule:evenodd}</style></defs><path id="icon_user" class="cls-1" d="M1063.43 100.489V100a1.917 1.917 0 1 0-3.83 0v.489a1.917 1.917 0 1 0 3.83 0zm2.29 3.646v-.014a1.217 1.217 0 0 0-.7-.789h-.01l-1.58-.789a.284.284 0 0 0-.29.041 2.464 2.464 0 0 1-3.28 0 .278.278 0 0 0-.29-.041l-1.58.789h-.02a1.3 1.3 0 0 0-.7.789v.014l-.27 1.591a.267.267 0 0 0 .06.191.229.229 0 0 0 .19.081h8.47a.243.243 0 0 0 .19-.081.164.164 0 0 0 .08-.191z" transform="translate(-1057 -98)"></path>
		</symbol>
	
		<symbol id="instagram" viewBox="0 0 15 15">
			<defs><style>.cls-1{fill:#fff;fill-rule:evenodd}</style></defs><path id="instagram" class="cls-1" d="M230.5 4645.35c2 0 2.24.01 3.031.04a4.4 4.4 0 0 1 1.393.26 2.463 2.463 0 0 1 1.423 1.43 4.1 4.1 0 0 1 .258 1.39c.036.79.044 1.03.044 3.03s-.008 2.24-.044 3.03a4.1 4.1 0 0 1-.258 1.39 2.5 2.5 0 0 1-1.423 1.43 4.2 4.2 0 0 1-1.393.25c-.791.04-1.028.05-3.031.05s-2.239-.01-3.03-.05a4.188 4.188 0 0 1-1.393-.25 2.433 2.433 0 0 1-.862-.56 2.382 2.382 0 0 1-.561-.87 4.116 4.116 0 0 1-.259-1.39c-.036-.79-.043-1.03-.043-3.03s.007-2.24.043-3.03a4.116 4.116 0 0 1 .259-1.39 2.463 2.463 0 0 1 1.423-1.43 4.4 4.4 0 0 1 1.393-.26c.791-.03 1.028-.04 3.031-.04m0-1.35c-2.037 0-2.293.01-3.093.04a5.739 5.739 0 0 0-1.82.35 3.732 3.732 0 0 0-1.329.87 3.65 3.65 0 0 0-.865 1.33 5.455 5.455 0 0 0-.348 1.82c-.037.8-.046 1.05-.046 3.09s.009 2.29.046 3.09a5.509 5.509 0 0 0 .348 1.82 3.663 3.663 0 0 0 .865 1.33 3.732 3.732 0 0 0 1.329.87 5.5 5.5 0 0 0 1.82.34c.8.04 1.056.05 3.093.05s2.292-.01 3.092-.05a5.5 5.5 0 0 0 1.82-.34 3.84 3.84 0 0 0 2.194-2.2 5.509 5.509 0 0 0 .348-1.82c.037-.8.045-1.05.045-3.09s-.008-2.29-.045-3.09a5.455 5.455 0 0 0-.348-1.82 3.663 3.663 0 0 0-.865-1.33 3.732 3.732 0 0 0-1.329-.87 5.739 5.739 0 0 0-1.82-.35c-.8-.03-1.056-.04-3.093-.04zm-3.852 7.5a3.852 3.852 0 1 0 3.851-3.85 3.848 3.848 0 0 0-3.852 3.85zm3.851 2.5a2.5 2.5 0 1 1 2.5-2.5 2.5 2.5 0 0 1-2.5 2.5zm4-7.41a.91.91 0 1 1-.906.91.91.91 0 0 1 .906-.91z" transform="translate(-223 -4644)"></path>
		</symbol>
	
		<symbol id="logo-metro" viewBox="0 0 20 14">
			<defs><style>.cls-1{fill:#e52629;fill-rule:evenodd}</style></defs><path id="logo-metro" class="cls-1" d="M482.935 445.043v1.812h7.071v-1.812h-1.376L483.95 433l-3.95 7.031-3.939-7.031-4.685 12.046H470v1.812h7.071v-1.812h-1.059l1.031-3 2.957 4.948 2.96-4.955 1.031 3h-1.059z" transform="translate(-470 -433)"></path>
		</symbol>
	
		<symbol id="missing" viewBox="0 0 20 20">
			<defs><style>.cls-1{fill:#de3535;fill-rule:evenodd}</style></defs><path id="icon" class="cls-1" d="M554 748a10 10 0 1 0 10-10 10 10 0 0 0-10 10zm10-6.843a6.8 6.8 0 0 1 3.394.907l-9.33 9.33A6.836 6.836 0 0 1 564 741.157zm-3.394 12.778l9.33-9.33a6.835 6.835 0 0 1-9.33 9.33z" transform="translate(-554 -738)"></path>
		</symbol>
	
		<symbol id="one-click" viewBox="0 0 18 24">
			<defs><style>.cls-1{fill:#de3535;fill-rule:evenodd}</style></defs><path id="icon" class="cls-1" d="M620.564 914.742l-2.216-3.988-2.538 1.986a.5.5 0 0 1-.808-.395V898.5a.5.5 0 0 1 .854-.353l10 10a.5.5 0 0 1-.354.854h-3.15l2.087 3.757a.5.5 0 0 1-.213.691l-3 1.5A.486.486 0 0 1 621 915a.5.5 0 0 1-.436-.258zm-1.963-5.233a.5.5 0 0 1 .338.249l2.268 4.081 2.1-1.053-2.246-4.043a.5.5 0 0 1 .439-.743h2.793L616 899.706v11.613l2.192-1.714a.5.5 0 0 1 .308-.106.475.475 0 0 1 .1.01zm-6.156-4.16a7.5 7.5 0 1 1 9.9-3.794.5.5 0 0 1-.913-.407 6.5 6.5 0 1 0-8.585 3.286.5.5 0 0 1-.2.957.52.52 0 0 1-.202-.042z" transform="translate(-608 -891)"></path>
		</symbol>
	
		<symbol id="pagination-left" viewBox="0 0 5 9">
			<defs><style>.cls-1{fill:#252525;fill-rule:evenodd;opacity:.6}</style></defs><path id="Стрелка_влево" data-name="Стрелка влево" class="cls-1" d="M631.406 4194.97l3.494 4.03 1.1-.94-3.087-3.56 3.087-3.56-1.1-.94-3.491 4.03-.4.47z" transform="translate(-631 -4190)"></path>
		</symbol>
	
		<symbol id="pagination-right" viewBox="0 0 5 9">
			<defs><style>.cls-1{fill:#fff;fill-rule:evenodd}</style></defs><path id="Стрелка_вправо" data-name="Стрелка вправо" class="cls-1" d="M948.593 4194.97L945.1 4199l-1.1-.94 3.086-3.56-3.086-3.56 1.1-.94 3.49 4.03.41.47z" transform="translate(-944 -4190)"></path>
		</symbol>
	
		<symbol id="product-page-info-1" viewBox="0 0 32.784 15.219">
			<defs><style>.cls-1{fill:#fff;fill-rule:evenodd}</style></defs><path id="Заливка_цветом_8" data-name="Заливка цветом 8" class="cls-1" d="M974.743 479.321a.327.327 0 1 0 0 .654h6.076a.327.327 0 1 0 0-.654h-6.076zm2.209-2.1a.327.327 0 1 0 0 .654h3.867a.327.327 0 1 0 0-.654h-3.867zm2.21-2.1a.327.327 0 1 0 0 .653h1.657a.327.327 0 1 0 0-.653h-1.657zm25.3 1.733l-1.8-3.312a.326.326 0 0 0-.3-.177h-4.892v-2.236a.335.335 0 0 0-.343-.327H983.2a.335.335 0 0 0-.343.327v11a.334.334 0 0 0 .343.326h1.875a.327.327 0 1 0 0-.653h-1.532v-10.35h13.236V481.8h-5.122a.327.327 0 1 0 0 .653h5.466a.34.34 0 0 0 .322-.225.317.317 0 0 0 .131-.251v-7.964h4.572l1.78 3.292a.369.369 0 0 0 .27.175l2.03.211a.313.313 0 0 1 .29.306l-.84 5.813a.338.338 0 0 0 .3.368.269.269 0 0 0 .04 0 .335.335 0 0 0 .34-.282l.84-5.836a.974.974 0 0 0-.9-1.021zm-2.11.371l-.98-1.882a.35.35 0 0 0-.31-.181h-1.75a.334.334 0 0 0-.343.326v1.882a.335.335 0 0 0 .343.327h2.73a.339.339 0 0 0 .29-.154.3.3 0 0 0 .018-.324zm-2.7-1.41h1.2l.64 1.228h-1.836v-1.228zm-7.234 7.717a.327.327 0 1 0 0 .654h6.082a.327.327 0 1 0 0-.654h-6.08zm7.288.053a2.549 2.549 0 1 0 2.552-2.422 2.492 2.492 0 0 0-2.55 2.416zm.682 0a1.862 1.862 0 1 1 1.87 1.772 1.825 1.825 0 0 1-1.868-1.778zm-14.457 0a2.549 2.549 0 1 0 2.546-2.422 2.491 2.491 0 0 0-2.544 2.416zm.686 0a1.862 1.862 0 1 1 1.86 1.772 1.818 1.818 0 0 1-1.858-1.778z" transform="translate(-974.406 -470.781)"></path>
		</symbol>
	
		<symbol id="product-page-info-2" viewBox="0 0 28 16">
			<defs><style>.cls-1{fill:#fff;fill-rule:evenodd}</style></defs><path id="Заливка_цветом_1" data-name="Заливка цветом 1" class="cls-1" d="M1004.91 553.926l-12.575-5.909v-1.278a2.381 2.381 0 1 0-2.685-2.359.336.336 0 1 0 .671 0 1.679 1.679 0 1 1 1.679 1.7.337.337 0 0 0-.335.34v1.593l-12.578 5.91A2.062 2.062 0 0 0 978 555.6v.018a2.368 2.368 0 0 0 2.347 2.382h23.3a2.366 2.366 0 0 0 2.35-2.382v-.018a2.049 2.049 0 0 0-1.087-1.674zm-16.19 3.4h-8.373a1.691 1.691 0 0 1-1.677-1.691 1.359 1.359 0 0 1 .7-1.089l12.63-5.937 12.63 5.932a1.377 1.377 0 0 1 .7 1.091 1.7 1.7 0 0 1-1.68 1.691h-14.93z" transform="translate(-978 -542)"></path>
		</symbol>
	
		<symbol id="product-page-info-3" viewBox="0 0 20 19">
			<defs><style>.cls-1{fill:#fff;fill-rule:evenodd}</style></defs><path id="Заливка_цветом_1" data-name="Заливка цветом 1" class="cls-1" d="M986.234 618.129l-4.09 4.25a.559.559 0 0 0 0 .727l4.09 4.249a.441.441 0 0 0 .643-.019.559.559 0 0 0-.018-.707l-3.26-3.383h11.811c3.213 0 5.68 2.869 5.68 6.492S998.643 636 995.41 636h-12.954a.5.5 0 0 0 0 1h12.954c3.69 0 6.59-3.128 6.59-7.258s-2.88-7.492-6.59-7.492H983.6l3.26-3.39a.552.552 0 0 0 .109-.576.433.433 0 0 0-.421-.284.473.473 0 0 0-.314.129z" transform="translate(-982 -618)"></path>
		</symbol>
	
		<symbol id="product-page-info-4" viewBox="0 0 26 16">
			<defs><style>.cls-1{fill:#fff;fill-rule:evenodd}</style></defs><path id="Заливка_цветом_34" data-name="Заливка цветом 34" class="cls-1" d="M989.213 704.84v-3.1a1.091 1.091 0 0 0-1.106-1.069h-3.319a1.092 1.092 0 0 0-1.107 1.069v3.1a1.092 1.092 0 0 0 1.107 1.069h3.319a1.091 1.091 0 0 0 1.106-1.069zm-4.979-3.1a.558.558 0 0 1 .554-.535h3.319a.557.557 0 0 1 .553.535v3.1a.558.558 0 0 1-.553.535h-3.319a.515.515 0 0 1-.554-.535v-3.1zm2.213 8.764a.357.357 0 1 0 0 .713h10.917a.363.363 0 0 0 .368-.356.39.39 0 0 0-.368-.357h-10.917zm6.085-8.408a.25.25 0 1 0 0 .5h7.858a.248.248 0 0 0 .26-.25.232.232 0 0 0-.26-.249h-7.858zm-7.855 5.986a.356.356 0 1 0 0 .712H999.1a.356.356 0 1 0 0-.712h-14.42zM981.653 698a2.6 2.6 0 0 0-2.653 2.565v10.867a2.6 2.6 0 0 0 2.653 2.568h20.687a2.6 2.6 0 0 0 2.66-2.565v-10.87a2.628 2.628 0 0 0-2.66-2.566h-20.687zm20.687 15.107h-20.687a1.7 1.7 0 0 1-1.733-1.674v-10.868a1.7 1.7 0 0 1 1.733-1.675h20.687a1.708 1.708 0 0 1 1.74 1.675v10.867a1.708 1.708 0 0 1-1.74 1.674zm-9.808-9.228a.25.25 0 1 0 0 .5h7.858a.247.247 0 0 0 .26-.249.233.233 0 0 0-.26-.25h-7.858z" transform="translate(-979 -698)"></path>
		</symbol>
	
		<symbol id="product-page-info-5" viewBox="0 0 12.718 14.656">
			<defs><style>.cls-1{fill:#fff;fill-rule:evenodd}</style></defs><path id="_" data-name="%" class="cls-1" d="M986.064 780.2a2.967 2.967 0 0 0 .8 2.167 2.679 2.679 0 0 0 2 .821 2.591 2.591 0 0 0 1.987-.835 2.942 2.942 0 0 0 .777-2.085v-.693a3.03 3.03 0 0 0-.786-2.164 2.809 2.809 0 0 0-4 0 2.95 2.95 0 0 0-.786 2.105v.684zm.948-.631a2.3 2.3 0 0 1 .512-1.565 1.784 1.784 0 0 1 2.652 0 2.226 2.226 0 0 1 .507 1.5v.714a2.314 2.314 0 0 1-.493 1.532 1.634 1.634 0 0 1-1.323.591 1.687 1.687 0 0 1-1.352-.587 2.217 2.217 0 0 1-.5-1.5v-.7zm6.211 8.658a2.974 2.974 0 0 0 .8 2.154 2.662 2.662 0 0 0 2 .825 2.619 2.619 0 0 0 1.987-.831 2.93 2.93 0 0 0 .786-2.1v-.693a3 3 0 0 0-.8-2.173 2.66 2.66 0 0 0-2-.826 2.617 2.617 0 0 0-1.987.831 2.93 2.93 0 0 0-.786 2.1v.713zm.937-.679a2.254 2.254 0 0 1 .508-1.546 1.837 1.837 0 0 1 2.671 0 2.206 2.206 0 0 1 .5 1.511v.715a2.349 2.349 0 0 1-.493 1.551 1.648 1.648 0 0 1-1.333.592 1.691 1.691 0 0 1-1.353-.587 2.238 2.238 0 0 1-.5-1.507v-.724zm2.022-8.843l-.733-.468-6.943 11.113.732.469z" transform="translate(-986.063 -776.563)"></path>
		</symbol>
	
		<symbol id="sale" viewBox="0 0 262.907 71.31">
			<defs><style>.cls-1{fill:#de3535;fill-rule:evenodd;opacity:.1}</style></defs><path id="_-70_" data-name="-70%" class="cls-1" d="M107.846 1736.91v-14.81H81.04v14.81h26.806zm42.5 18.64l24.434-58.21v-11.06h-50.056v15.52h30.033l-23.817 53.75h19.4zm84.178-61.37q-6.333-8.985-18.717-8.99-12.714 0-18.882 8.64t-6.168 27.14q0 17.64 6.31 26.59t18.74 8.94q12.716 0 18.883-8.56t6.168-26.97q-.002-17.805-6.336-26.79zm-23.651 10.46q1.47-4.455 4.934-4.45t4.935 4.62q1.47 4.62 1.47 16.16 0 11.475-1.447 16.03t-4.958 4.56q-3.464 0-4.934-4.42t-1.47-16.17q-.003-11.865 1.468-16.33zm59.7-5.4c.585-1.65 1.494-2.47 2.728-2.47 1.2 0 2.1.81 2.681 2.42a36.02 36.02 0 0 1 0 15.8q-.879 2.37-2.681 2.37c-1.2 0-2.1-.81-2.7-2.42a24.633 24.633 0 0 1-.9-7.88 25.229 25.229 0 0 1 .867-7.82zm15.728-8.21q-4.887-5.835-13.19-5.84-8.4 0-13.047 5.62t-4.649 16.06q0 10.065 4.768 15.97a15.732 15.732 0 0 0 12.928 5.91q8.682 0 13.379-5.72t4.7-16.16q-.008-10.005-4.89-15.84zm25.382-4.84l-38.483 69.36h14.091l38.477-69.36h-14.09zm11.648 40.66c.585-1.65 1.494-2.47 2.728-2.47 1.359 0 2.3.93 2.823 2.78a36.549 36.549 0 0 1 0 15.04c-.522 1.85-1.464 2.77-2.823 2.77-1.2 0-2.1-.8-2.7-2.42a24.61 24.61 0 0 1-.9-7.87 25.259 25.259 0 0 1 .867-7.83zm15.727-8.21q-4.887-5.835-13.189-5.83-8.4 0-13.047 5.62t-4.65 16.06q0 10.005 4.768 15.91a15.732 15.732 0 0 0 12.929 5.91q8.634 0 13.355-5.72t4.721-16.1q-.005-10.02-4.892-15.85z" transform="translate(-81.031 -1685.19)"></path>
		</symbol>
	
		<symbol id="slick-next" viewBox="0 0 10.5 16">
			<defs><style>.cls-1{fill-rule:evenodd}</style></defs><path id="arrrow-right" class="cls-1" d="M472 749l-2.5 2.5 5.5 5.5-5.5 5.5 2.5 2.5 8-8z" transform="translate(-469.5 -749)"></path>
		</symbol>
	
		<symbol id="slick-prev" viewBox="0 0 10.5 16">
			<defs><style>.cls-1{fill-rule:evenodd}</style></defs><path id="arrrow-left" class="cls-1" d="M88 749l2.5 2.5L85 757l5.5 5.5L88 765l-8-8z" transform="translate(-80 -749)"></path>
		</symbol>
	
		<symbol id="table-icon-close" viewBox="0 0 14 14">
			<defs><style>.cls-1{fill:#111;fill-rule:evenodd}</style></defs><path id="ИКОНКА._Закрыть" data-name="ИКОНКА. Закрыть" class="cls-1" d="M1189.22 501l5.78-5.782 5.78 5.782 1.22-1.215-5.79-5.785 5.79-5.782-1.22-1.218-5.78 5.782-5.78-5.782-1.22 1.215 5.79 5.782-5.79 5.782z" transform="translate(-1188 -487)"></path>
		</symbol>
	
		<symbol id="twitter" viewBox="0 0 15.031 13">
			<defs><style>.cls-1{fill:#fff;fill-rule:evenodd}</style></defs><path id="twitter" class="cls-1" d="M161.739 4645.87a3.329 3.329 0 0 0 .853-1.41.169.169 0 0 0-.248-.2 6.148 6.148 0 0 1-1.584.68.33.33 0 0 1-.1.01.414.414 0 0 1-.277-.11 3.181 3.181 0 0 0-2.144-.84 3.319 3.319 0 0 0-1.027.16 3.215 3.215 0 0 0-2.115 2.36 3.682 3.682 0 0 0-.077 1.24.115.115 0 0 1-.029.09.107.107 0 0 1-.09.04h-.011a8.394 8.394 0 0 1-5.84-3.24.162.162 0 0 0-.278.02 3.485 3.485 0 0 0 .528 4.1 3.237 3.237 0 0 1-.739-.3.168.168 0 0 0-.252.15 3.382 3.382 0 0 0 1.892 3.11h-.069a3.36 3.36 0 0 1-.546-.05.17.17 0 0 0-.193.22 3.284 3.284 0 0 0 2.565 2.3 5.838 5.838 0 0 1-3.349 1.06h-.374a.243.243 0 0 0-.243.19.275.275 0 0 0 .123.3 8.588 8.588 0 0 0 11.082-1.77 9.635 9.635 0 0 0 1.711-2.98 9.793 9.793 0 0 0 .581-3.26v-.05a.579.579 0 0 1 .207-.45 6.482 6.482 0 0 0 1.288-1.47.174.174 0 0 0-.21-.26 5.456 5.456 0 0 1-1.035.36z" transform="translate(-148 -4644)"></path>
		</symbol>
	
		<symbol id="vk" viewBox="0 0 21 12">
			<defs><style>.cls-1{fill:#fff;fill-rule:evenodd}</style></defs><path id="Vk.com" class="cls-1" d="M127.818 4655.7a10.712 10.712 0 0 0-2.089-2.42l-.022-.03-.01-.01-.011-.01h-.011a12.066 12.066 0 0 1-.886-.9.848.848 0 0 1-.153-.89 8.492 8.492 0 0 1 .984-1.43q.448-.585.71-.93c1.262-1.68 1.808-2.75 1.641-3.22l-.066-.11a.577.577 0 0 0-.338-.18 1.937 1.937 0 0 0-.7-.03l-3.149.02a.565.565 0 0 0-.219.01l-.142.03-.055.03-.044.03a.419.419 0 0 0-.12.12.727.727 0 0 0-.109.19 18.15 18.15 0 0 1-1.17 2.46c-.27.46-.517.85-.744 1.18a5.275 5.275 0 0 1-.568.73 3.273 3.273 0 0 1-.416.38.357.357 0 0 1-.284.12c-.066-.01-.127-.03-.186-.04a.8.8 0 0 1-.246-.27 1.214 1.214 0 0 1-.126-.43c-.021-.17-.034-.32-.038-.44s0-.3.006-.53.011-.38.011-.45c0-.28 0-.58.016-.91s.02-.58.027-.77.011-.39.011-.6a2.53 2.53 0 0 0-.038-.5 1.631 1.631 0 0 0-.115-.35.539.539 0 0 0-.224-.26.959.959 0 0 0-.366-.15 6.635 6.635 0 0 0-1.476-.14 7.063 7.063 0 0 0-2.614.26 1.453 1.453 0 0 0-.415.33c-.131.16-.15.24-.055.26a1.351 1.351 0 0 1 .93.47l.065.13a2.112 2.112 0 0 1 .153.51 5.037 5.037 0 0 1 .1.79 8.636 8.636 0 0 1 0 1.37c-.037.38-.071.68-.1.89a1.911 1.911 0 0 1-.148.52 2.237 2.237 0 0 1-.131.24.675.675 0 0 1-.055.05.748.748 0 0 1-.3.06.732.732 0 0 1-.372-.16 2.481 2.481 0 0 1-.453-.42 5.77 5.77 0 0 1-.531-.75 12.769 12.769 0 0 1-.612-1.14l-.175-.32a23.123 23.123 0 0 1-.948-2.02.737.737 0 0 0-.262-.35l-.055-.04a1.168 1.168 0 0 0-.175-.09 1.069 1.069 0 0 0-.252-.07l-3 .02a.757.757 0 0 0-.623.21l-.044.07a.327.327 0 0 0-.032.17.9.9 0 0 0 .065.3c.438 1.03.913 2.02 1.427 2.98s.96 1.72 1.339 2.31.766 1.13 1.159 1.65.655.85.782 1l.3.33.273.26a7.768 7.768 0 0 0 .771.63q.508.36 1.126.72a6 6 0 0 0 1.438.58 4.933 4.933 0 0 0 1.6.18h1.257a.856.856 0 0 0 .58-.24l.043-.05a.917.917 0 0 0 .082-.21 1.08 1.08 0 0 0 .038-.3 3.69 3.69 0 0 1 .071-.85 2.336 2.336 0 0 1 .186-.57 1.675 1.675 0 0 1 .235-.32.946.946 0 0 1 .187-.16.2.2 0 0 1 .087-.03.684.684 0 0 1 .618.16 4.046 4.046 0 0 1 .667.64c.207.25.457.53.749.85a5.1 5.1 0 0 0 .765.7l.219.13a2.415 2.415 0 0 0 .568.24 1.355 1.355 0 0 0 .613.06l2.8-.05a1.286 1.286 0 0 0 .645-.13.548.548 0 0 0 .273-.31.845.845 0 0 0 .006-.37 1.48 1.48 0 0 0-.077-.29 1.193 1.193 0 0 0-.073-.13z" transform="translate(-107 -4645)"></path>
		</symbol>
	
		<symbol id="youtube" viewBox="0 0 20 14">
			<defs><style>.cls-1{fill:#fff;fill-rule:evenodd}</style></defs><path id="YouTube" class="cls-1" d="M193 1119.99s-4.2 0-7 .21a2.845 2.845 0 0 0-2 .84 4.267 4.267 0 0 0-.794 1.97 30 30 0 0 0-.2 3.23v1.5a30 30 0 0 0 .2 3.23 4.267 4.267 0 0 0 .794 1.97 3.422 3.422 0 0 0 2.206.86c1.6.15 6.8.19 6.8.19s4.2 0 7-.2a2.867 2.867 0 0 0 2-.85 4.261 4.261 0 0 0 .8-1.97 30 30 0 0 0 .2-3.23v-1.5a30 30 0 0 0-.2-3.23 4.261 4.261 0 0 0-.8-1.97 2.845 2.845 0 0 0-2-.84c-2.8-.21-7-.21-7-.21m-2.06 9.59l5.389-2.79-5.39-2.8v5.59z" transform="translate(-183 -1120)"></path>
		</symbol>
	
</svg>
