<svg xmlns="http://www.w3.org/2000/svg" xmlns:xlink="http://www.w3.org/1999/xlink">
    <symbol viewBox="0 0 24 24" id="arrow_right" xmlns="http://www.w3.org/2000/svg">
        <path fill-rule="evenodd" clip-rule="evenodd"
            d="M12.9697 4.71967C13.2626 4.42678 13.7374 4.42678 14.0303 4.71967L20.7803 11.4697C21.0732 11.7626 21.0732 12.2374 20.7803 12.5303L14.0303 19.2803C13.7374 19.5732 13.2626 19.5732 12.9697 19.2803C12.6768 18.9874 12.6768 18.5126 12.9697 18.2197L18.4393 12.75H3.75C3.33579 12.75 3 12.4142 3 12C3 11.5858 3.33579 11.25 3.75 11.25H18.4393L12.9697 5.78033C12.6768 5.48744 12.6768 5.01256 12.9697 4.71967Z" />
    </symbol>
    <symbol viewBox="0 0 24 24" id="arrow_left" xmlns="http://www.w3.org/2000/svg">
        <path fill-rule="evenodd" clip-rule="evenodd"
            d="M11.0303 4.71967C11.3232 5.01256 11.3232 5.48744 11.0303 5.78033L5.56066 11.25H20.25C20.6642 11.25 21 11.5858 21 12C21 12.4142 20.6642 12.75 20.25 12.75H5.56066L11.0303 18.2197C11.3232 18.5126 11.3232 18.9874 11.0303 19.2803C10.7374 19.5732 10.2626 19.5732 9.96967 19.2803L3.21967 12.5303C2.92678 12.2374 2.92678 11.7626 3.21967 11.4697L9.96967 4.71967C10.2626 4.42678 10.7374 4.42678 11.0303 4.71967Z" />
    </symbol>
    <symbol viewBox="0 0 24 24" id="telegram" xmlns="http://www.w3.org/2000/svg">
        <path fill-rule="evenodd" clip-rule="evenodd"
            d="M21.8394 6.05639C22.0315 4.8917 20.8652 3.97177 19.7773 4.42984L2.67703 11.63C1.48461 12.132 1.42351 13.8558 2.67788 14.3758C3.60596 14.7605 5.02633 15.3246 6.45085 15.7943C7.61932 16.1795 8.8931 16.5371 9.91353 16.6383C10.1929 16.9725 10.5445 17.2935 10.9017 17.5872C11.4487 18.0371 12.1074 18.5012 12.7873 18.9455C14.1489 19.8352 15.6597 20.6865 16.678 21.2396C17.8949 21.9006 19.3517 21.1395 19.5705 19.8131L21.8394 6.05639ZM4.59485 12.9925L19.7186 6.62459L17.6009 19.4649C16.6024 18.9219 15.163 18.1087 13.8813 17.2713C13.2329 16.8475 12.6407 16.4279 12.172 16.0425C12.0051 15.9052 11.8638 15.7802 11.7461 15.6683L15.7072 11.7071C16.0977 11.3166 16.0977 10.6834 15.7072 10.2929C15.3167 9.90237 14.6835 9.90237 14.293 10.2929L9.95476 14.6311C9.22132 14.5373 8.19888 14.2647 7.07709 13.8949C6.21377 13.6102 5.34574 13.2869 4.59485 12.9925Z" />
    </symbol>
    <symbol viewBox="0 0 24 24" id="language" xmlns="http://www.w3.org/2000/svg">
        <path fill-rule="evenodd" clip-rule="evenodd"
            d="M4.06055 9.75C3.85825 10.4652 3.75 11.22 3.75 12C3.75 12.78 3.85825 13.5348 4.06055 14.25H7.62034C7.54146 13.5271 7.5 12.7732 7.5 12C7.5 11.2268 7.54146 10.4729 7.62034 9.75H4.06055ZM4.64956 8.25H7.84569C8.04263 7.23416 8.31835 6.30836 8.65891 5.51313C8.86838 5.02404 9.1073 4.57281 9.37559 4.17619C7.31922 4.86569 5.62431 6.3432 4.64956 8.25ZM14.6244 4.17619C14.8927 4.57281 15.1316 5.02404 15.3411 5.51313C15.6817 6.30836 15.9574 7.23416 16.1543 8.25H19.3504C18.3757 6.3432 16.6808 4.86569 14.6244 4.17619ZM19.9395 9.75H16.3797C16.4585 10.4729 16.5 11.2268 16.5 12C16.5 12.7732 16.4585 13.5271 16.3797 14.25H19.9395C20.1417 13.5348 20.25 12.78 20.25 12C20.25 11.22 20.1417 10.4652 19.9395 9.75ZM19.3504 15.75H16.1543C15.9574 16.7658 15.6817 17.6916 15.3411 18.4869C15.1316 18.976 14.8927 19.4272 14.6244 19.8238C16.6808 19.1343 18.3757 17.6568 19.3504 15.75ZM9.37559 19.8238C9.1073 19.4272 8.86838 18.976 8.65891 18.4869C8.31835 17.6916 8.04263 16.7658 7.84569 15.75H4.64956C5.62431 17.6568 7.31923 19.1343 9.37559 19.8238ZM9.37646 15.75C9.54878 16.5557 9.77378 17.2799 10.0378 17.8963C10.3533 18.6331 10.7097 19.1813 11.0673 19.5345C11.4217 19.8845 11.736 20.0062 12 20.0062C12.264 20.0062 12.5783 19.8845 12.9327 19.5345C13.2903 19.1813 13.6467 18.6331 13.9622 17.8963C14.2262 17.2799 14.4512 16.5557 14.6235 15.75H9.37646ZM14.87 14.25C14.9544 13.5377 15 12.7832 15 12C15 11.2168 14.9544 10.4623 14.87 9.75H9.12997C9.04564 10.4623 9 11.2168 9 12C9 12.7832 9.04564 13.5377 9.12997 14.25H14.87ZM9.37646 8.25H14.6235C14.4512 7.44429 14.2262 6.7201 13.9622 6.10366C13.6467 5.36692 13.2903 4.81865 12.9327 4.46548C12.5783 4.11548 12.264 3.99375 12 3.99375C11.736 3.99375 11.4217 4.11548 11.0673 4.46548C10.7097 4.81865 10.3533 5.36692 10.0378 6.10366C9.77378 6.7201 9.54878 7.44429 9.37646 8.25ZM2.25 12C2.25 6.61522 6.61522 2.25 12 2.25C17.3848 2.25 21.75 6.61522 21.75 12C21.75 17.3848 17.3848 21.75 12 21.75C6.61522 21.75 2.25 17.3848 2.25 12Z" />
    </symbol>
    <symbol viewBox="0 0 24 24" id="" xmlns="http://www.w3.org/2000/svg">

    </symbol>

</svg>