<svg width="40" height="40" viewBox="0 0 40 40" fill="none" xmlns="http://www.w3.org/2000/svg">
<rect width="40" height="40" fill="#F1F1F1"/>
<path fill-rule="evenodd" clip-rule="evenodd" d="M11.5364 11.3504C11.8054 11.125 12.1463 11 12.5 11H27.5C27.8978 11 28.2794 11.158 28.5607 11.4393C28.842 11.7206 29 12.1022 29 12.5V27.5C29 27.8538 28.875 28.1946 28.6496 28.4636C28.6247 28.4991 28.5964 28.533 28.5647 28.5647C28.533 28.5964 28.4991 28.6247 28.4636 28.6496C28.1946 28.875 27.8538 29 27.5 29H25.25C24.8358 29 24.5 28.6642 24.5 28.25C24.5 27.8358 24.8358 27.5 25.25 27.5H26.4393L12.5 13.5607V14.75C12.5 15.1642 12.1642 15.5 11.75 15.5C11.3358 15.5 11 15.1642 11 14.75V12.5C11 12.1463 11.125 11.8054 11.3504 11.5364C11.3753 11.5009 11.4036 11.467 11.4353 11.4353C11.467 11.4036 11.5009 11.3753 11.5364 11.3504ZM13.5607 12.5L27.5 26.4393V12.5L13.5607 12.5ZM11.75 17.75C12.1642 17.75 12.5 18.0858 12.5 18.5V21.5C12.5 21.9142 12.1642 22.25 11.75 22.25C11.3358 22.25 11 21.9142 11 21.5V18.5C11 18.0858 11.3358 17.75 11.75 17.75ZM11.75 24.5C12.1642 24.5 12.5 24.8358 12.5 25.25V27.5H14.75C15.1642 27.5 15.5 27.8358 15.5 28.25C15.5 28.6642 15.1642 29 14.75 29H12.5C12.1022 29 11.7206 28.842 11.4393 28.5607C11.158 28.2794 11 27.8978 11 27.5V25.25C11 24.8358 11.3358 24.5 11.75 24.5ZM17.75 28.25C17.75 27.8358 18.0858 27.5 18.5 27.5H21.5C21.9142 27.5 22.25 27.8358 22.25 28.25C22.25 28.6642 21.9142 29 21.5 29H18.5C18.0858 29 17.75 28.6642 17.75 28.25Z" fill="#1D1E1C"/>
</svg>
